<svg id="KeyBoard" xmlns="http://www.w3.org/2000/svg" viewBox="0 0 881.54 266.33"><g id="KeyBoard_Plate"><rect id="Plate" x="4" y="4" width="873.54" height="258.33" rx="6.28" style="fill:#777;stroke:#777;stroke-miterlimit:10;stroke-width:8px"/><rect id="KeyBoard_LED2" x="774.38" y="25.29" width="2.88" height="7.51" rx="1" style="fill:#2f2d2d"/><rect id="KeyBoard_LED1" x="736.42" y="25.29" width="2.88" height="7.51" rx="1" style="fill:#2f2d2d"/><rect id="KeyBoard_LED3" x="812.96" y="25.29" width="2.88" height="7.51" rx="1" style="fill:#2f2d2d"/><rect id="KeyBoard_LED4" x="851.03" y="25.29" width="2.88" height="7.51" rx="1" style="fill:#2f2d2d"/></g><g id="KeyBoard_Keys"><rect id="ESC" x="13.02" y="12.6" width="37.14" height="37.14" style="fill:#d8781e"/><rect id="F1" x="88.43" y="12.08" width="37.14" height="37.14" style="fill:#2f2d2d;opacity:0.1"/><rect id="F2" x="126.6" y="12.08" width="37.14" height="37.14" style="fill:#2f2d2d;opacity:0.1"/><rect id="F3" x="164.77" y="12.08" width="37.14" height="37.14" style="fill:#2f2d2d;opacity:0.1"/><rect id="F4" x="202.95" y="12.08" width="37.14" height="37.14" style="fill:#2f2d2d;opacity:0.1"/><rect id="___" data-name="`_~" x="12.59" y="56.78" width="37.14" height="37.14" style="fill:#2f2d2d;opacity:0.1"/><rect id="L_Ctrl" x="12.59" y="208.78" width="47.16" height="37.14" style="fill:#2f2d2d;opacity:0.1"/><rect id="L_Win_Cmd" x="60.56" y="208.78" width="47.16" height="37.14" style="fill:#2f2d2d;opacity:0.1"/><rect id="L_Alt" x="108.53" y="208.78" width="47.16" height="37.14" style="fill:#2f2d2d;opacity:0.1"/><rect id="R_Alt" x="393.12" y="208.78" width="47.16" height="37.14" style="fill:#2f2d2d;opacity:0.1"/><rect id="R_Win_Cmd" x="440.9" y="208.78" width="47.16" height="37.14" style="fill:#2f2d2d;opacity:0.1"/><rect id="Fn" x="488.68" y="208.78" width="47.16" height="37.14" style="fill:#2f2d2d;opacity:0.1"/><rect id="R_Ctrl" x="536.46" y="208.78" width="47.16" height="37.14" style="fill:#2f2d2d;opacity:0.1"/><rect id="SpaceBar" x="156.75" y="208.78" width="234.99" height="37.14" style="fill:#2f2d2d;opacity:0.1"/><rect id="_1" data-name="1" x="50.6" y="56.78" width="37.14" height="37.14" style="fill:#2f2d2d;opacity:0.1"/><rect id="_2" data-name="2" x="88.6" y="56.78" width="37.14" height="37.14" style="fill:#2f2d2d;opacity:0.1"/><rect id="_3" data-name="3" x="126.6" y="56.78" width="37.14" height="37.14" style="fill:#2f2d2d;opacity:0.1"/><rect id="_4" data-name="4" x="164.6" y="56.78" width="37.14" height="37.14" style="fill:#2f2d2d;opacity:0.1"/><rect id="_5" data-name="5" x="202.6" y="56.78" width="37.14" height="37.14" style="fill:#2f2d2d;opacity:0.1"/><rect id="_6" data-name="6" x="240.6" y="56.78" width="37.14" height="37.14" style="fill:#2f2d2d;opacity:0.1"/><rect id="_7" data-name="7" x="278.6" y="56.78" width="37.14" height="37.14" style="fill:#2f2d2d;opacity:0.1"/><rect id="_8" data-name="8" x="316.61" y="56.78" width="37.14" height="37.14" style="fill:#2f2d2d;opacity:0.1"/><rect id="_9" data-name="9" x="354.61" y="56.78" width="37.14" height="37.14" style="fill:#2f2d2d;opacity:0.1"/><rect id="_0" data-name="0" x="392.61" y="56.78" width="37.14" height="37.14" style="fill:#2f2d2d;opacity:0.1"/><rect id="_-" data-name="-" x="430.61" y="56.78" width="37.14" height="37.14" style="fill:#2f2d2d;opacity:0.1"/><rect id="_" data-name="=" x="468.61" y="56.78" width="37.14" height="37.14" style="fill:#2f2d2d;opacity:0.1"/><rect id="Q" x="70.03" y="94.78" width="37.14" height="37.14" style="fill:#2f2d2d;opacity:0.1"/><rect id="W" x="108.03" y="94.78" width="37.14" height="37.14" style="fill:#2f2d2d;opacity:0.1"/><rect id="E" x="146.03" y="94.78" width="37.14" height="37.14" style="fill:#2f2d2d;opacity:0.1"/><rect id="R" x="184.03" y="94.78" width="37.14" height="37.14" style="fill:#2f2d2d;opacity:0.1"/><rect id="T" x="222.03" y="94.78" width="37.14" height="37.14" style="fill:#2f2d2d;opacity:0.1"/><rect id="Y" x="260.03" y="94.78" width="37.14" height="37.14" style="fill:#2f2d2d;opacity:0.1"/><rect id="U" x="298.03" y="94.78" width="37.14" height="37.14" style="fill:#2f2d2d;opacity:0.1"/><rect id="I" x="336.04" y="94.78" width="37.14" height="37.14" style="fill:#2f2d2d;opacity:0.1"/><rect id="O" x="374.04" y="94.78" width="37.14" height="37.14" style="fill:#2f2d2d;opacity:0.1"/><rect id="P" x="412.04" y="94.78" width="37.14" height="37.14" style="fill:#2f2d2d;opacity:0.1"/><rect id="_2-2" data-name="[" x="450.04" y="94.78" width="37.14" height="37.14" style="fill:#2f2d2d;opacity:0.1"/><rect x="80.75" y="132.72" width="37.14" height="37.14" style="fill:#2f2d2d;opacity:0.1"/><rect x="118.75" y="132.72" width="37.14" height="37.14" style="fill:#2f2d2d;opacity:0.1"/><rect x="156.75" y="132.72" width="37.14" height="37.14" style="fill:#2f2d2d;opacity:0.1"/><rect x="194.76" y="132.72" width="37.14" height="37.14" style="fill:#2f2d2d;opacity:0.1"/><rect x="232.76" y="132.72" width="37.14" height="37.14" style="fill:#2f2d2d;opacity:0.1"/><rect x="270.76" y="132.72" width="37.14" height="37.14" style="fill:#2f2d2d;opacity:0.1"/><rect x="308.76" y="132.72" width="37.14" height="37.14" style="fill:#2f2d2d;opacity:0.1"/><rect x="346.76" y="132.72" width="37.14" height="37.14" style="fill:#2f2d2d;opacity:0.1"/><rect x="384.76" y="132.72" width="37.14" height="37.14" style="fill:#2f2d2d;opacity:0.1"/><rect x="422.76" y="132.72" width="37.14" height="37.14" style="fill:#2f2d2d;opacity:0.1"/><rect x="100.75" y="171.02" width="37.14" height="37.14" style="fill:#2f2d2d;opacity:0.1"/><rect x="138.75" y="171.02" width="37.14" height="37.14" style="fill:#2f2d2d;opacity:0.1"/><rect x="176.76" y="171.02" width="37.14" height="37.14" style="fill:#2f2d2d;opacity:0.1"/><rect x="214.76" y="171.02" width="37.14" height="37.14" style="fill:#2f2d2d;opacity:0.1"/><rect x="252.76" y="171.02" width="37.14" height="37.14" style="fill:#2f2d2d;opacity:0.1"/><rect id="N" x="290.76" y="171.02" width="37.14" height="37.14" style="fill:#2f2d2d;opacity:0.1"/><rect id="M" x="328.76" y="171.02" width="37.14" height="37.14" style="fill:#2f2d2d;opacity:0.1"/><rect id="_3-2" data-name="," x="366.76" y="171.02" width="37.14" height="37.14" style="fill:#2f2d2d;opacity:0.1"/><rect id="_." data-name="." x="404.76" y="171.02" width="37.14" height="37.14" style="fill:#2f2d2d;opacity:0.1"/><rect id="_4-2" data-name="/" x="442.76" y="171.02" width="37.14" height="37.14" style="fill:#2f2d2d;opacity:0.1"/><rect id="_5-2" data-name="&apos;" x="460.77" y="132.72" width="37.14" height="37.14" style="fill:#2f2d2d;opacity:0.1"/><rect id="_6-2" data-name="]" x="488.04" y="94.78" width="37.14" height="37.14" style="fill:#2f2d2d;opacity:0.1"/><rect id="_7-2" data-name="\" x="526.1" y="94.78" width="57.34" height="37.14" style="fill:#2f2d2d;opacity:0.1"/><rect id="Tab" x="12.59" y="94.78" width="56.74" height="37.14" style="fill:#2f2d2d;opacity:0.1"/><rect id="Caps_Lock" x="12.59" y="132.72" width="67.27" height="37.14" style="fill:#2f2d2d;opacity:0.1"/><rect id="L_Shift" x="12.59" y="171.02" width="87.35" height="37.14" style="fill:#2f2d2d;opacity:0.1"/><rect id="BackSpace" x="507.09" y="56.78" width="76.35" height="37.14" style="fill:#2f2d2d;opacity:0.1"/><rect id="Enter" x="498.91" y="132.72" width="84.53" height="37.14" style="fill:#2f2d2d;opacity:0.1"/><rect id="Num0" x="717.38" y="208.59" width="76" height="37.14" style="fill:#2f2d2d;opacity:0.1"/><rect id="R_Shift" x="480.84" y="171.02" width="102.78" height="37.14" style="fill:#2f2d2d;opacity:0.1"/><rect id="F5" x="259.69" y="12.08" width="37.14" height="37.14" style="fill:#2f2d2d;opacity:0.1"/><rect id="F6" x="297.86" y="12.08" width="37.14" height="37.14" style="fill:#2f2d2d;opacity:0.1"/><rect id="F7" x="336.03" y="12.08" width="37.14" height="37.14" style="fill:#2f2d2d;opacity:0.1"/><rect id="F8" x="374.21" y="12.08" width="37.14" height="37.14" style="fill:#2f2d2d;opacity:0.1"/><rect id="F9" x="431.78" y="12.08" width="37.14" height="37.14" style="fill:#2f2d2d;opacity:0.1"/><rect id="F10" x="469.95" y="12.08" width="37.14" height="37.14" style="fill:#2f2d2d;opacity:0.1"/><rect id="F11" x="508.12" y="12.08" width="37.14" height="37.14" style="fill:#2f2d2d;opacity:0.1"/><rect id="F12" x="546.3" y="12.08" width="37.14" height="37.14" style="fill:#2f2d2d;opacity:0.1"/><rect id="PrintScreen" x="594.88" y="11.78" width="37.14" height="37.14" style="fill:#2f2d2d;opacity:0.1"/><rect id="ScrollLock" x="632.88" y="11.78" width="37.14" height="37.14" style="fill:#2f2d2d;opacity:0.1"/><rect id="Pause" x="670.88" y="11.78" width="37.14" height="37.14" style="fill:#2f2d2d;opacity:0.1"/><rect id="Insert" x="594.88" y="56.78" width="37.14" height="37.14" style="fill:#2f2d2d;opacity:0.1"/><rect id="Home" x="632.88" y="56.78" width="37.14" height="37.14" style="fill:#2f2d2d;opacity:0.1"/><rect id="PageUp" x="670.88" y="56.78" width="37.14" height="37.14" style="fill:#2f2d2d;opacity:0.1"/><rect id="Delete" x="594.88" y="94.78" width="37.14" height="37.14" style="fill:#2f2d2d;opacity:0.1"/><rect id="LeftArrow" x="594.72" y="208.23" width="37.14" height="37.14" style="fill:#2f2d2d;opacity:0.1"/><rect id="DownArrow" x="632.82" y="208.23" width="37.14" height="37.14" style="fill:#2f2d2d;opacity:0.1"/><rect id="RightArrow" x="670.73" y="208.23" width="37.14" height="37.22" style="fill:#2f2d2d;opacity:0.1"/><rect id="UpArrow" x="632.82" y="170.4" width="37.14" height="37.14" style="fill:#2f2d2d;opacity:0.1"/><rect id="End" x="632.88" y="94.78" width="37.14" height="37.14" style="fill:#2f2d2d;opacity:0.1"/><rect id="PageDown" x="670.88" y="94.78" width="37.14" height="37.14" style="fill:#2f2d2d;opacity:0.1"/><rect id="NumLock" x="718.38" y="56.49" width="37.14" height="37.14" style="fill:#2f2d2d;opacity:0.1"/><rect id="_8-2" data-name="/" x="756.38" y="56.49" width="37.14" height="37.14" style="fill:#2f2d2d;opacity:0.1"/><rect id="_9-2" data-name="*" x="794.38" y="56.49" width="37.14" height="37.14" style="fill:#2f2d2d;opacity:0.1"/><rect id="Num7" x="718.38" y="94.39" width="37.14" height="37.14" style="fill:#2f2d2d;opacity:0.1"/><rect id="Num8" x="756.38" y="94.39" width="37.14" height="37.14" style="fill:#2f2d2d;opacity:0.1"/><rect id="Num9" x="794.38" y="94.39" width="37.14" height="37.14" style="fill:#2f2d2d;opacity:0.1"/><rect id="Num4" x="718.38" y="132.39" width="37.14" height="37.14" style="fill:#2f2d2d;opacity:0.1"/><rect id="Num5" x="756.38" y="132.39" width="37.14" height="37.14" style="fill:#2f2d2d;opacity:0.1"/><rect id="Num6" x="794.38" y="132.39" width="37.14" height="37.14" style="fill:#2f2d2d;opacity:0.1"/><rect id="Num1" x="718.38" y="170.39" width="37.14" height="37.14" style="fill:#2f2d2d;opacity:0.1"/><rect id="Num2" x="756.38" y="170.39" width="37.14" height="37.14" style="fill:#2f2d2d;opacity:0.1"/><rect id="Num." x="794.38" y="208.59" width="37.14" height="37.14" style="fill:#2f2d2d;opacity:0.1"/><rect id="Num-" x="832.53" y="56.49" width="37.14" height="37.14" style="fill:#2f2d2d;opacity:0.1"/><rect id="Num_" data-name="Num+" x="832.53" y="94.39" width="37.14" height="75.14" style="fill:#2f2d2d;opacity:0.1"/><rect id="NumEnter" x="832.53" y="170.39" width="37.14" height="75.34" style="fill:#2f2d2d;opacity:0.1"/><rect id="Num3" x="794.38" y="170.39" width="37.14" height="37.14" style="fill:#2f2d2d;opacity:0.1"/></g></svg>