<svg xmlns="http://www.w3.org/2000/svg" viewBox="0 0 881.54 266.33"><defs><style>.cls-1{fill:#777;stroke:#777;stroke-miterlimit:10;stroke-width:8px;}.cls-2,.cls-4{fill:#2f2d2d;}.cls-3{fill:#d8781e;}.cls-4{opacity:0.1;}</style></defs><g id="Layer_2" data-name="Layer 2"><g id="KeyBoard"><g id="KeyBoard_Plate"><rect id="Plate" class="cls-1" x="4" y="4" width="873.54" height="258.33" rx="6.28"/><rect id="KeyBoard_LED2" class="cls-2" x="774.38" y="25.29" width="2.88" height="7.51" rx="1"/><rect id="KeyBoard_LED1" class="cls-2" x="736.42" y="25.29" width="2.88" height="7.51" rx="1"/><rect id="KeyBoard_LED3" class="cls-2" x="812.96" y="25.29" width="2.88" height="7.51" rx="1"/><rect id="KeyBoard_LED4" class="cls-2" x="851.03" y="25.29" width="2.88" height="7.51" rx="1"/></g><g id="KeyBoard_Keys"><rect id="ESC" class="cls-3" x="13.02" y="12.6" width="37.14" height="37.14"/><rect id="F1" class="cls-4" x="88.43" y="12.08" width="37.14" height="37.14"/><rect id="F2" class="cls-4" x="126.6" y="12.08" width="37.14" height="37.14"/><rect id="F3" class="cls-4" x="164.77" y="12.08" width="37.14" height="37.14"/><rect id="F4" class="cls-4" x="202.95" y="12.08" width="37.14" height="37.14"/><rect id="___" data-name="`_~" class="cls-4" x="12.59" y="56.78" width="37.14" height="37.14"/><rect id="L_Ctrl" class="cls-4" x="12.59" y="208.78" width="47.16" height="37.14"/><rect id="L_Win_Cmd" class="cls-4" x="60.56" y="208.78" width="47.16" height="37.14"/><rect id="L_Alt" class="cls-4" x="108.53" y="208.78" width="47.16" height="37.14"/><rect id="R_Alt" class="cls-4" x="393.12" y="208.78" width="47.16" height="37.14"/><rect id="R_Win_Cmd" class="cls-4" x="440.9" y="208.78" width="47.16" height="37.14"/><rect id="Fn" class="cls-4" x="488.68" y="208.78" width="47.16" height="37.14"/><rect id="R_Ctrl" class="cls-4" x="536.46" y="208.78" width="47.16" height="37.14"/><rect id="SpaceBar" class="cls-4" x="156.75" y="208.78" width="234.99" height="37.14"/><rect id="_1" data-name="1" class="cls-4" x="50.6" y="56.78" width="37.14" height="37.14"/><rect id="_2" data-name="2" class="cls-4" x="88.6" y="56.78" width="37.14" height="37.14"/><rect id="_3" data-name="3" class="cls-4" x="126.6" y="56.78" width="37.14" height="37.14"/><rect id="_4" data-name="4" class="cls-4" x="164.6" y="56.78" width="37.14" height="37.14"/><rect id="_5" data-name="5" class="cls-4" x="202.6" y="56.78" width="37.14" height="37.14"/><rect id="_6" data-name="6" class="cls-4" x="240.6" y="56.78" width="37.14" height="37.14"/><rect id="_7" data-name="7" class="cls-4" x="278.6" y="56.78" width="37.14" height="37.14"/><rect id="_8" data-name="8" class="cls-4" x="316.61" y="56.78" width="37.14" height="37.14"/><rect id="_9" data-name="9" class="cls-4" x="354.61" y="56.78" width="37.14" height="37.14"/><rect id="_0" data-name="0" class="cls-4" x="392.61" y="56.78" width="37.14" height="37.14"/><rect id="_-" data-name="-" class="cls-4" x="430.61" y="56.78" width="37.14" height="37.14"/><rect id="_" data-name="=" class="cls-4" x="468.61" y="56.78" width="37.14" height="37.14"/><rect id="Q" class="cls-4" x="70.03" y="94.78" width="37.14" height="37.14"/><rect id="W" class="cls-4" x="108.03" y="94.78" width="37.14" height="37.14"/><rect id="E" class="cls-4" x="146.03" y="94.78" width="37.14" height="37.14"/><rect id="R" class="cls-4" x="184.03" y="94.78" width="37.14" height="37.14"/><rect id="T" class="cls-4" x="222.03" y="94.78" width="37.14" height="37.14"/><rect id="Y" class="cls-4" x="260.03" y="94.78" width="37.14" height="37.14"/><rect id="U" class="cls-4" x="298.03" y="94.78" width="37.14" height="37.14"/><rect id="I" class="cls-4" x="336.04" y="94.78" width="37.14" height="37.14"/><rect id="O" class="cls-4" x="374.04" y="94.78" width="37.14" height="37.14"/><rect id="P" class="cls-4" x="412.04" y="94.78" width="37.14" height="37.14"/><rect id="_2-2" data-name="[" class="cls-4" x="450.04" y="94.78" width="37.14" height="37.14"/><rect class="cls-4" x="80.75" y="132.72" width="37.14" height="37.14"/><rect class="cls-4" x="118.75" y="132.72" width="37.14" height="37.14"/><rect class="cls-4" x="156.75" y="132.72" width="37.14" height="37.14"/><rect class="cls-4" x="194.76" y="132.72" width="37.14" height="37.14"/><rect class="cls-4" x="232.76" y="132.72" width="37.14" height="37.14"/><rect class="cls-4" x="270.76" y="132.72" width="37.14" height="37.14"/><rect class="cls-4" x="308.76" y="132.72" width="37.14" height="37.14"/><rect class="cls-4" x="346.76" y="132.72" width="37.14" height="37.14"/><rect class="cls-4" x="384.76" y="132.72" width="37.14" height="37.14"/><rect class="cls-4" x="422.76" y="132.72" width="37.14" height="37.14"/><rect class="cls-4" x="100.75" y="171.02" width="37.14" height="37.14"/><rect class="cls-4" x="138.75" y="171.02" width="37.14" height="37.14"/><rect class="cls-4" x="176.76" y="171.02" width="37.14" height="37.14"/><rect class="cls-4" x="214.76" y="171.02" width="37.14" height="37.14"/><rect class="cls-4" x="252.76" y="171.02" width="37.14" height="37.14"/><rect id="N" class="cls-4" x="290.76" y="171.02" width="37.14" height="37.14"/><rect id="M" class="cls-4" x="328.76" y="171.02" width="37.14" height="37.14"/><rect id="_3-2" data-name="," class="cls-4" x="366.76" y="171.02" width="37.14" height="37.14"/><rect id="_." data-name="." class="cls-4" x="404.76" y="171.02" width="37.14" height="37.14"/><rect id="_4-2" data-name="/" class="cls-4" x="442.76" y="171.02" width="37.14" height="37.14"/><rect id="_5-2" data-name="&apos;" class="cls-4" x="460.77" y="132.72" width="37.14" height="37.14"/><rect id="_6-2" data-name="]" class="cls-4" x="488.04" y="94.78" width="37.14" height="37.14"/><rect id="_7-2" data-name="\" class="cls-4" x="526.69" y="94.78" width="56.74" height="37.14"/><rect id="Tab" class="cls-4" x="12.59" y="94.78" width="56.74" height="37.14"/><rect id="Caps_Lock" class="cls-4" x="12.59" y="132.72" width="67.73" height="37.14"/><rect id="L_Shift" class="cls-4" x="12.59" y="171.02" width="86.3" height="37.14"/><rect id="BackSpace" class="cls-4" x="507.09" y="56.78" width="76.35" height="37.14"/><rect id="Enter" class="cls-4" x="499.8" y="132.72" width="83.64" height="37.14"/><rect id="Num0" class="cls-4" x="717.38" y="208.59" width="76" height="37.14"/><rect id="R_Shift" class="cls-4" x="481.49" y="171.02" width="102.13" height="37.14"/><rect id="F5" class="cls-4" x="259.69" y="12.08" width="37.14" height="37.14"/><rect id="F6" class="cls-4" x="297.86" y="12.08" width="37.14" height="37.14"/><rect id="F7" class="cls-4" x="336.03" y="12.08" width="37.14" height="37.14"/><rect id="F8" class="cls-4" x="374.21" y="12.08" width="37.14" height="37.14"/><rect id="F9" class="cls-4" x="431.78" y="12.08" width="37.14" height="37.14"/><rect id="F10" class="cls-4" x="469.95" y="12.08" width="37.14" height="37.14"/><rect id="F11" class="cls-4" x="508.12" y="12.08" width="37.14" height="37.14"/><rect id="F12" class="cls-4" x="546.3" y="12.08" width="37.14" height="37.14"/><rect id="PrintScreen" class="cls-4" x="594.88" y="11.78" width="37.14" height="37.14"/><rect id="ScrollLock" class="cls-4" x="632.88" y="11.78" width="37.14" height="37.14"/><rect id="Pause" class="cls-4" x="670.88" y="11.78" width="37.14" height="37.14"/><rect id="Insert" class="cls-4" x="594.88" y="56.78" width="37.14" height="37.14"/><rect id="Home" class="cls-4" x="632.88" y="56.78" width="37.14" height="37.14"/><rect id="PageUp" class="cls-4" x="670.88" y="56.78" width="37.14" height="37.14"/><rect id="Delete" class="cls-4" x="594.88" y="94.78" width="37.14" height="37.14"/><rect id="LeftArrow" class="cls-4" x="594.72" y="208.23" width="37.14" height="37.14"/><rect id="DownArrow" class="cls-4" x="632.82" y="208.23" width="37.14" height="37.14"/><rect id="RightArrow" class="cls-4" x="670.73" y="208.23" width="37.14" height="37.22"/><rect id="UpArrow" class="cls-4" x="632.82" y="170.4" width="37.14" height="37.14"/><rect id="End" class="cls-4" x="632.88" y="94.78" width="37.14" height="37.14"/><rect id="PageDown" class="cls-4" x="670.88" y="94.78" width="37.14" height="37.14"/><rect id="NumLock" class="cls-4" x="718.38" y="56.49" width="37.14" height="37.14"/><rect id="_8-2" data-name="/" class="cls-4" x="756.38" y="56.49" width="37.14" height="37.14"/><rect id="_9-2" data-name="*" class="cls-4" x="794.38" y="56.49" width="37.14" height="37.14"/><rect id="Num7" class="cls-4" x="718.38" y="94.39" width="37.14" height="37.14"/><rect id="Num8" class="cls-4" x="756.38" y="94.39" width="37.14" height="37.14"/><rect id="Num9" class="cls-4" x="794.38" y="94.39" width="37.14" height="37.14"/><rect id="Num4" class="cls-4" x="718.38" y="132.39" width="37.14" height="37.14"/><rect id="Num5" class="cls-4" x="756.38" y="132.39" width="37.14" height="37.14"/><rect id="Num6" class="cls-4" x="794.38" y="132.39" width="37.14" height="37.14"/><rect id="Num1" class="cls-4" x="718.38" y="170.39" width="37.14" height="37.14"/><rect id="Num2" class="cls-4" x="756.38" y="170.39" width="37.14" height="37.14"/><rect id="Num." class="cls-4" x="794.38" y="208.59" width="37.14" height="37.14"/><rect id="Num-" class="cls-4" x="832.53" y="56.49" width="37.14" height="37.14"/><rect id="Num_" data-name="Num+" class="cls-4" x="832.53" y="94.39" width="37.14" height="75.14"/><rect id="NumEnter" class="cls-4" x="832.53" y="170.39" width="37.14" height="75.34"/><rect id="Num3" class="cls-4" x="794.38" y="170.39" width="37.14" height="37.14"/></g></g></g></svg>