<svg width="125" height="296" viewBox="0 0 125 296" fill="none" xmlns="http://www.w3.org/2000/svg">
<path d="M22 1H101.5V66H112.5L117.5 77V89.5L124.5 93.5V105.5H85V93.5H38.5V105.5H30.5H0.5V93.5L6.5 89.5V79L12 66H19V34.5L24.5 28.5V7.5L22 5.5V1Z" fill="#3D66D9" stroke="black"/>
<path d="M38.5 105H32V136.5V217H44.5V261L51 271H71.5L77 261V217H91V131.5H93.5V105H85V93H38.5V105Z" fill="#3D66D9" stroke="black"/>
<path d="M51 2V65.5H57" stroke="black"/>
<path d="M75 3V65.5H69.5M69.5 65.5V59H57V76M69.5 65.5V76" stroke="black"/>
<path d="M74.5 295.5L51 289.5L74.5 283L51 277.5L74.5 270.5L51 266.5L74.5 260.5L51 255L74.5 250L51 243.5L74.5 238L51 231L74.5 226L51 220" stroke="black"/>
</svg>
