<svg id="Layer_1" data-name="Layer 1" xmlns="http://www.w3.org/2000/svg" viewBox="0 0 278.8 285"><defs><style>.cls-1{fill:#b84145;}.cls-2{fill:#9e2a2f;}.cls-3{font-size:49.57px;font-family:MonumentExtended-Regular, Monument Extended;}.cls-4{letter-spacing:-0.01em;}.cls-5{letter-spacing:-0.02em;}</style></defs><rect id="keyboard-house" class="cls-1" width="278.8" height="285" rx="4.99"/><g id="keyboard-line"><rect class="cls-2" x="452.34" y="995.8" width="1" height="51.43" transform="translate(-1014.62 -401.94) rotate(-43.93)"/><rect class="cls-2" x="660.89" y="1021" width="55.23" height="1" transform="translate(-939.64 -277.46) rotate(-42.07)"/><rect class="cls-2" x="421.97" y="1260.3" width="60.74" height="1" transform="translate(-1258.43 -141.81) rotate(-52.86)"/><rect class="cls-2" x="688" y="1229.55" width="1" height="63.89" transform="translate(-1081.67 -266.16) rotate(-39.92)"/><path class="cls-2" d="M666.19,1237.93H471.61a2.34,2.34,0,0,1-2.34-2.34V1041a2.35,2.35,0,0,1,2.34-2.35H666.19a2.35,2.35,0,0,1,2.34,2.35v194.57A2.34,2.34,0,0,1,666.19,1237.93ZM471.61,1039.67a1.35,1.35,0,0,0-1.34,1.35v194.57a1.34,1.34,0,0,0,1.34,1.34H666.19a1.34,1.34,0,0,0,1.34-1.34V1041a1.35,1.35,0,0,0-1.34-1.35Z" transform="translate(-432.6 -1002)"/></g><text class="cls-3" transform="translate(69.31 98.92)"><tspan class="cls-4">E</tspan><tspan class="cls-5" x="39.9" y="0">S</tspan><tspan x="86.44" y="0">C</tspan></text></svg>