<svg id="Layer_1" data-name="Layer 1" xmlns="http://www.w3.org/2000/svg" viewBox="0 0 278.8 285"><defs><style>.cls-1{fill:#b84145;}.cls-2{fill:#9e2a2f;}</style></defs><rect id="keyboard-house" class="cls-1" width="278.8" height="285" rx="4.99"/><g id="keyboard-line"><rect class="cls-2" x="452.34" y="995.8" width="1" height="51.43" transform="translate(-1014.62 -401.94) rotate(-43.93)"/><rect class="cls-2" x="660.89" y="1021" width="55.23" height="1" transform="translate(-939.64 -277.46) rotate(-42.07)"/><rect class="cls-2" x="421.97" y="1260.3" width="60.74" height="1" transform="translate(-1258.43 -141.81) rotate(-52.86)"/><rect class="cls-2" x="688" y="1229.55" width="1" height="63.89" transform="translate(-1081.67 -266.16) rotate(-39.92)"/><path class="cls-2" d="M666.19,1237.93H471.61a2.34,2.34,0,0,1-2.34-2.34V1041a2.35,2.35,0,0,1,2.34-2.35H666.19a2.35,2.35,0,0,1,2.34,2.35v194.57A2.34,2.34,0,0,1,666.19,1237.93ZM471.61,1039.67a1.35,1.35,0,0,0-1.34,1.35v194.57a1.34,1.34,0,0,0,1.34,1.34H666.19a1.34,1.34,0,0,0,1.34-1.34V1041a1.35,1.35,0,0,0-1.34-1.35Z" transform="translate(-432.6 -1002)"/></g><path d="M513,1073.32v7h27.76v6.45H513v7h27.76v7.09H504v-34.69h36.68v7.09Z" transform="translate(-432.6 -1002)"/><path d="M552.37,1089c0,3.66,3,5.35,14.27,5.35,9.37,0,12.19-1,12.19-3.77s-2-3.37-13.23-3.91c-15.12-.7-21.11-3.08-21.11-10.86,0-7.63,7.78-10.06,20.76-10.06s21,3.27,21,11.85h-8.92c0-3.82-3.82-4.76-13.09-4.76-8.77,0-10.85.84-10.85,3.42s2.08,3.17,12.19,3.77c13.68.74,22.15,1.48,22.15,10.26,0,9.26-8.77,11.15-21.61,11.15-14.22,0-22.69-2.43-22.69-12.44Z" transform="translate(-432.6 -1002)"/><path d="M611.79,1065.73c13.83,0,20.77,5.26,21.66,15.27h-9.07c-.84-5.6-5.15-7.78-12.59-7.78-9.07,0-12.88,3.22-12.88,10.31s3.86,10.4,12.88,10.4c7.39,0,11.75-2.23,12.59-7.88h9.07c-.89,10.06-7.83,15.37-21.66,15.37-15.26,0-21.8-6.35-21.8-17.89S596.53,1065.73,611.79,1065.73Z" transform="translate(-432.6 -1002)"/></svg>