<svg xmlns="http://www.w3.org/2000/svg" viewBox="0 0 873.6 421.8"><defs><style>.cls-1{fill:#2d2f35;}</style></defs><g id="Layer_2" data-name="Layer 2"><g id="Layer_1-2" data-name="Layer 1"><g id="click"><g id="click-2" data-name="click"><g id="KeyBoard_Plate" data-name="KeyBoard Plate"><path id="Plate" d="M6.3,0h861a6.27,6.27,0,0,1,6.3,6.3V252.1a6.27,6.27,0,0,1-6.3,6.3H6.3A6.27,6.27,0,0,1,0,252.1V6.3A6.27,6.27,0,0,1,6.3,0Z"/><path id="palmRest" class="cls-1" d="M.3,255.8h873v146a20.06,20.06,0,0,1-20,20H20.3a20.06,20.06,0,0,1-20-20v-146Z"/><path id="keybordKnobTwo" class="cls-1" d="M765,7.8h90.6a9.65,9.65,0,0,1,9.7,9.7v9.6a9.65,9.65,0,0,1-9.7,9.7H765a9.65,9.65,0,0,1-9.7-9.7V17.5A9.65,9.65,0,0,1,765,7.8Z"/><circle id="keyboardKnob" class="cls-1" cx="733.3" cy="21.8" r="14"/></g><g id="KeyBoard_Keys" data-name="KeyBoard Keys"><rect id="F1" class="cls-1" x="84.4" y="8.1" width="37.1" height="37.1"/><rect id="F2" class="cls-1" x="122.6" y="8.1" width="37.1" height="37.1"/><rect id="F3" class="cls-1" x="160.7" y="8.1" width="37.1" height="37.1"/><rect id="F4" class="cls-1" x="198.9" y="8.1" width="37.1" height="37.1"/><rect id="_Backquote" data-name="`" class="cls-1" x="8.6" y="52.8" width="37.1" height="37.1"/><rect id="L_Ctrl" data-name="L Ctrl" class="cls-1" x="8.6" y="204.8" width="47.2" height="37.1"/><rect id="L_Win_Cmd" data-name="L Win Cmd" class="cls-1" x="56.5" y="204.8" width="47.2" height="37.1"/><rect id="L_Alt" data-name="L Alt" class="cls-1" x="104.5" y="204.8" width="47.2" height="37.1"/><rect id="R_Alt" data-name="R Alt" class="cls-1" x="389.1" y="204.8" width="47.2" height="37.1"/><rect id="R_Win_Cmd" data-name="R Win Cmd" class="cls-1" x="436.9" y="204.8" width="47.2" height="37.1"/><rect id="Fn" class="cls-1" x="484.7" y="204.8" width="47.2" height="37.1"/><rect id="R_Ctrl" data-name="R Ctrl" class="cls-1" x="532.4" y="204.8" width="47.2" height="37.1"/><rect id="SpaceBar" class="cls-1" x="152.7" y="204.8" width="235" height="37.1"/><rect id="_1" data-name=" 1" class="cls-1" x="46.6" y="52.8" width="37.1" height="37.1"/><rect id="_2" data-name=" 2" class="cls-1" x="84.6" y="52.8" width="37.1" height="37.1"/><rect id="_3" data-name=" 3" class="cls-1" x="122.6" y="52.8" width="37.1" height="37.1"/><rect id="_4" data-name=" 4" class="cls-1" x="160.6" y="52.8" width="37.1" height="37.1"/><rect id="_5" data-name=" 5" class="cls-1" x="198.6" y="52.8" width="37.1" height="37.1"/><rect id="_6" data-name=" 6" class="cls-1" x="236.6" y="52.8" width="37.1" height="37.1"/><rect id="_7" data-name=" 7" class="cls-1" x="274.6" y="52.8" width="37.1" height="37.1"/><rect id="_8" data-name=" 8" class="cls-1" x="312.6" y="52.8" width="37.1" height="37.1"/><rect id="_9" data-name=" 9" class="cls-1" x="350.6" y="52.8" width="37.1" height="37.1"/><rect id="_0" data-name=" 0" class="cls-1" x="388.6" y="52.8" width="37.1" height="37.1"/><rect id="_-" data-name=" -" class="cls-1" x="426.6" y="52.8" width="37.1" height="37.1"/><rect id="_2-2" data-name="=" class="cls-1" x="464.6" y="52.8" width="37.1" height="37.1"/><rect id="q" class="cls-1" x="66" y="90.8" width="37.1" height="37.1"/><rect id="w" class="cls-1" x="104" y="90.8" width="37.1" height="37.1"/><rect id="e" class="cls-1" x="142" y="90.8" width="37.1" height="37.1"/><rect id="r" class="cls-1" x="180" y="90.8" width="37.1" height="37.1"/><rect id="t" class="cls-1" x="218" y="90.8" width="37.1" height="37.1"/><rect id="y" class="cls-1" x="256" y="90.8" width="37.1" height="37.1"/><rect id="u" class="cls-1" x="294" y="90.8" width="37.1" height="37.1"/><rect id="i" class="cls-1" x="332" y="90.8" width="37.1" height="37.1"/><rect id="o" class="cls-1" x="370" y="90.8" width="37.1" height="37.1"/><rect id="p" class="cls-1" x="408" y="90.8" width="37.1" height="37.1"/><rect id="_22-22" data-name=" 2-2" class="cls-1" x="446" y="90.8" width="37.1" height="37.1"/><rect id="a" class="cls-1" x="76.7" y="128.7" width="37.1" height="37.1"/><rect id="s" class="cls-1" x="114.7" y="128.7" width="37.1" height="37.1"/><rect id="d" class="cls-1" x="152.7" y="128.7" width="37.1" height="37.1"/><rect id="f" class="cls-1" x="190.7" y="128.7" width="37.1" height="37.1"/><rect id="g" class="cls-1" x="228.7" y="128.7" width="37.1" height="37.1"/><rect id="h" class="cls-1" x="266.7" y="128.7" width="37.1" height="37.1"/><rect id="j" class="cls-1" x="304.7" y="128.7" width="37.1" height="37.1"/><rect id="k" class="cls-1" x="342.7" y="128.7" width="37.1" height="37.1"/><rect id="l" class="cls-1" x="380.7" y="128.7" width="37.1" height="37.1"/><rect id="_3-2" data-name=" 3-2" class="cls-1" x="418.7" y="128.7" width="37.1" height="37.1"/><rect id="z" class="cls-1" x="96.7" y="167" width="37.1" height="37.1"/><rect id="x" class="cls-1" x="134.7" y="167" width="37.1" height="37.1"/><rect id="c" class="cls-1" x="172.7" y="167" width="37.1" height="37.1"/><rect id="v" class="cls-1" x="210.7" y="167" width="37.1" height="37.1"/><rect id="b" class="cls-1" x="248.7" y="167" width="37.1" height="37.1"/><rect id="n" class="cls-1" x="286.7" y="167" width="37.1" height="37.1"/><rect id="m" class="cls-1" x="324.7" y="167" width="37.1" height="37.1"/><rect id="_4-2" data-name=" 4-2" class="cls-1" x="362.7" y="167" width="37.1" height="37.1"/><rect id="_33" data-name=" ." class="cls-1" x="400.7" y="167" width="37.1" height="37.1"/><rect id="_5-2" data-name=" 5-2" class="cls-1" x="438.7" y="167" width="37.1" height="37.1"/><rect id="_6-2" data-name=" 6-2" class="cls-1" x="456.7" y="128.7" width="37.1" height="37.1"/><rect id="_7-2" data-name=" 7-2" class="cls-1" x="484" y="90.8" width="37.1" height="37.1"/><rect id="_8-2" data-name=" 8-2" class="cls-1" x="522.1" y="90.8" width="57.3" height="37.1"/><rect id="Tab" class="cls-1" x="8.6" y="90.8" width="56.7" height="37.1"/><rect id="CapsLock" class="cls-1" x="8.6" y="128.7" width="67.3" height="37.1"/><rect id="LShift" class="cls-1" x="8.6" y="167" width="87.4" height="37.1"/><rect id="Backspace" class="cls-1" x="503.1" y="52.8" width="76.4" height="37.1"/><rect id="Enter" class="cls-1" x="494.9" y="128.7" width="84.5" height="37.1"/><rect id="Num0" class="cls-1" x="713.4" y="204.6" width="76" height="37.1"/><rect id="RShift" class="cls-1" x="476.8" y="167" width="102.8" height="37.1"/><rect id="F5" class="cls-1" x="255.7" y="8.1" width="37.1" height="37.1"/><rect id="F6" class="cls-1" x="293.8" y="8.1" width="37.1" height="37.1"/><rect id="F7" class="cls-1" x="332" y="8.1" width="37.1" height="37.1"/><rect id="F8" class="cls-1" x="370.2" y="8.1" width="37.1" height="37.1"/><rect id="F9" class="cls-1" x="427.8" y="8.1" width="37.1" height="37.1"/><rect id="F10" class="cls-1" x="465.9" y="8.1" width="37.1" height="37.1"/><rect id="F11" class="cls-1" x="504.1" y="8.1" width="37.1" height="37.1"/><rect id="F12" class="cls-1" x="542.3" y="8.1" width="37.1" height="37.1"/><rect id="PrintScreen" class="cls-1" x="590.9" y="7.8" width="37.1" height="37.1"/><rect id="ScrollLock" class="cls-1" x="628.9" y="7.8" width="37.1" height="37.1"/><rect id="Pause" class="cls-1" x="666.9" y="7.8" width="37.1" height="37.1"/><rect id="Insert" class="cls-1" x="590.9" y="52.8" width="37.1" height="37.1"/><rect id="Home" class="cls-1" x="628.9" y="52.8" width="37.1" height="37.1"/><rect id="PageUp" class="cls-1" x="666.9" y="52.8" width="37.1" height="37.1"/><rect id="Delete" class="cls-1" x="590.9" y="90.8" width="37.1" height="37.1"/><rect id="ArrowLeft" class="cls-1" x="590.7" y="204.2" width="37.1" height="37.1"/><rect id="ArrowDown" class="cls-1" x="628.8" y="204.2" width="37.1" height="37.1"/><rect id="ArrowRight" class="cls-1" x="666.7" y="204.2" width="37.1" height="37.2"/><rect id="ArrowUp" class="cls-1" x="628.8" y="166.4" width="37.1" height="37.1"/><rect id="End" class="cls-1" x="628.9" y="90.8" width="37.1" height="37.1"/><rect id="PageDown" class="cls-1" x="666.9" y="90.8" width="37.1" height="37.1"/><rect id="NumLock" class="cls-1" x="714.4" y="52.5" width="37.1" height="37.1"/><rect id="_9-2" data-name="9-2" class="cls-1" x="752.4" y="52.5" width="37.1" height="37.1"/><rect id="_10" data-name="10" class="cls-1" x="790.4" y="52.5" width="37.1" height="37.1"/><rect id="Num7" class="cls-1" x="714.4" y="90.4" width="37.1" height="37.1"/><rect id="Num8" class="cls-1" x="752.4" y="90.4" width="37.1" height="37.1"/><rect id="Num9" class="cls-1" x="790.4" y="90.4" width="37.1" height="37.1"/><rect id="Num4" class="cls-1" x="714.4" y="128.4" width="37.1" height="37.1"/><rect id="Num5" class="cls-1" x="752.4" y="128.4" width="37.1" height="37.1"/><rect id="Num6" class="cls-1" x="790.4" y="128.4" width="37.1" height="37.1"/><rect id="Num1" class="cls-1" x="714.4" y="166.4" width="37.1" height="37.1"/><rect id="Num2" class="cls-1" x="752.4" y="166.4" width="37.1" height="37.1"/><rect id="_NumpadDecimal" class="cls-1" x="790.4" y="204.6" width="37.1" height="37.1"/><rect id="Num-" class="cls-1" x="828.5" y="52.5" width="37.1" height="37.1"/><rect id="Num_" data-name="Num " class="cls-1" x="828.5" y="90.4" width="37.1" height="75.1"/><rect id="NumEnter" class="cls-1" x="828.5" y="166.4" width="37.1" height="75.3"/><rect id="Num3" class="cls-1" x="790.4" y="166.4" width="37.1" height="37.1"/><rect id="Escape" class="cls-1" x="9" y="8.6" width="37.1" height="37.1"/></g></g></g></g></g></svg>