<svg width="100%" height="100%" viewBox="0 0 1004 288" fill="none" xmlns="http://www.w3.org/2000/svg">
<g id="Group 1">
<rect id="Rectangle 2" width="100%" height="100%" rx="5" fill="#605A5E"/>
<rect id="_Backquote" x="16" y="70" width="36" height="34" fill="#D6D4D5"/>
<rect id="_1" x="60" y="70" width="36" height="34" fill="#D6D4D5"/>
<rect id="_5" x="232" y="70" width="36" height="34" fill="#D6D4D5"/>
<rect id="_9" x="404" y="70" width="36" height="34" fill="#D6D4D5"/>
<rect id="_3" x="146" y="70" width="36" height="34" fill="#D6D4D5"/>
<rect id="_7" x="318" y="70" width="36" height="34" fill="#D6D4D5"/>
<rect id="_-" x="490" y="70" width="36" height="34" fill="#D6D4D5"/>
<rect id="_2" x="103" y="70" width="36" height="34" fill="#D6D4D5"/>
<rect id="_6" x="275" y="70" width="36" height="34" fill="#D6D4D5"/>
<rect id="_0" x="447" y="70" width="36" height="34" fill="#D6D4D5"/>
<rect id="_4" x="189" y="70" width="36" height="34" fill="#D6D4D5"/>
<rect id="_8" x="361" y="70" width="36" height="34" fill="#D6D4D5"/>
<rect id="_2-2" x="533" y="70" width="36" height="34" fill="#D6D4D5"/>
<path id="Vector 126" d="M815 48V14H992V48H815Z" fill="#2C272B"/>
<path id="monkey" d="M885.99 35.44C885.93 35.56 885.74 35.78 885.42 36.1C885.12 36.4 884.74 36.58 884.28 36.64C883.96 36.68 883.73 36.5 883.59 36.1C883.47 35.68 883.41 35.2 883.41 34.66C883.41 34.44 883.42 34.22 883.44 34C883.46 33.76 883.49 33.54 883.53 33.34C883.57 33.12 883.61 32.91 883.65 32.71C883.69 32.51 883.71 32.34 883.71 32.2C883.71 31.86 883.58 31.73 883.32 31.81C883.14 32.03 882.97 32.36 882.81 32.8C882.67 33.24 882.55 33.57 882.45 33.79C882.23 34.29 882.05 34.71 881.91 35.05C881.77 35.39 881.59 35.56 881.37 35.56C881.19 35.56 881.1 35.39 881.1 35.05C881.1 34.77 881.14 34.48 881.22 34.18C881.3 33.88 881.34 33.73 881.34 33.73C881.44 33.45 881.53 33.14 881.61 32.8C881.71 32.44 881.79 32.13 881.85 31.87C881.91 31.59 881.94 31.45 881.94 31.45C881.94 31.41 881.94 31.35 881.94 31.27C881.96 31.19 881.97 31.11 881.97 31.03C881.97 30.87 881.94 30.72 881.88 30.58C881.84 30.44 881.72 30.36 881.52 30.34C881.4 30.32 881.2 30.44 880.92 30.7C880.66 30.94 880.39 31.24 880.11 31.6C879.85 31.94 879.64 32.26 879.48 32.56C879.22 33.1 879.04 33.65 878.94 34.21C878.84 34.77 878.75 35.29 878.67 35.77C878.61 36.23 878.5 36.61 878.34 36.91C878.28 37.03 878.16 37.09 877.98 37.09C877.84 37.09 877.69 37.05 877.53 36.97C877.39 36.87 877.32 36.76 877.32 36.64C877.36 36.28 877.44 35.85 877.56 35.35C877.7 34.85 877.85 34.25 878.01 33.55C878.07 33.31 878.12 33.03 878.16 32.71C878.2 32.39 878.23 32.15 878.25 31.99V31.93C878.25 31.65 878.12 31.51 877.86 31.51C877.76 31.51 877.65 31.54 877.53 31.6C877.15 31.92 876.83 32.27 876.57 32.65C876.31 33.03 876.1 33.36 875.94 33.64C875.76 33.92 875.6 34.09 875.46 34.15C875.4 34.17 875.37 34.11 875.37 33.97C875.37 33.89 875.38 33.8 875.4 33.7C875.42 33.6 875.47 33.5 875.55 33.4C875.73 33.22 875.92 32.93 876.12 32.53C876.32 32.13 876.53 31.72 876.75 31.3C876.99 30.86 877.25 30.49 877.53 30.19C877.83 29.87 878.15 29.71 878.49 29.71C878.69 29.71 878.89 29.85 879.09 30.13C879.31 30.41 879.44 30.77 879.48 31.21C879.82 30.93 880.14 30.63 880.44 30.31C880.74 29.97 881.09 29.67 881.49 29.41C881.65 29.33 881.82 29.29 882 29.29C882.3 29.29 882.5 29.38 882.6 29.56C882.74 29.74 882.82 30 882.84 30.34C882.86 30.68 882.89 30.86 882.93 30.88C882.97 30.9 883.06 30.84 883.2 30.7C883.36 30.54 883.58 30.48 883.86 30.52C883.96 30.52 884.1 30.58 884.28 30.7C884.46 30.82 884.55 30.97 884.55 31.15C884.55 31.41 884.53 31.73 884.49 32.11C884.45 32.47 884.4 32.85 884.34 33.25C884.32 33.33 884.31 33.44 884.31 33.58C884.31 33.7 884.31 33.84 884.31 34C884.31 34.26 884.33 34.54 884.37 34.84C884.43 35.12 884.56 35.33 884.76 35.47C884.82 35.53 884.9 35.56 885 35.56C885.22 35.56 885.51 35.37 885.87 34.99C885.93 34.93 885.98 34.9 886.02 34.9C886.08 34.9 886.11 34.96 886.11 35.08C886.11 35.24 886.07 35.36 885.99 35.44ZM892.804 31.36C892.804 31.78 892.714 32.33 892.534 33.01C892.354 33.69 892.114 34.33 891.814 34.93C891.534 35.55 891.214 36.01 890.854 36.31C890.514 36.59 890.184 36.79 889.864 36.91C889.544 37.01 889.284 37.11 889.084 37.21C889.004 37.23 888.914 37.25 888.814 37.27C888.734 37.31 888.644 37.33 888.544 37.33C888.144 37.33 887.834 37.22 887.614 37C887.534 36.92 887.404 36.84 887.224 36.76C887.064 36.68 886.914 36.54 886.774 36.34C886.634 36.14 886.564 35.81 886.564 35.35C886.564 34.87 886.624 34.41 886.744 33.97C886.384 33.55 886.204 33.09 886.204 32.59C886.204 32.29 886.274 32 886.414 31.72C886.794 31 887.274 30.44 887.854 30.04C888.434 29.64 888.984 29.36 889.504 29.2C890.044 29.04 890.414 28.96 890.614 28.96C891.354 28.96 891.904 29.2 892.264 29.68C892.624 30.16 892.804 30.72 892.804 31.36ZM891.574 31.51C891.574 31.05 891.414 30.67 891.094 30.37C890.794 30.07 890.414 29.92 889.954 29.92C889.574 29.92 889.184 30.04 888.784 30.28C888.404 30.5 888.074 30.78 887.794 31.12C887.514 31.46 887.334 31.79 887.254 32.11C887.234 32.23 887.214 32.34 887.194 32.44C887.194 32.54 887.194 32.64 887.194 32.74C887.414 32.26 887.644 31.86 887.884 31.54C888.144 31.22 888.334 31.02 888.454 30.94C888.554 30.86 888.684 30.82 888.844 30.82C889.064 30.82 889.174 30.88 889.174 31C889.174 31.08 889.064 31.23 888.844 31.45C888.644 31.65 888.414 31.92 888.154 32.26C887.894 32.58 887.674 32.98 887.494 33.46C887.654 33.66 887.864 33.81 888.124 33.91C888.404 33.99 888.674 34.03 888.934 34.03C889.214 34.03 889.474 33.98 889.714 33.88C889.974 33.76 890.144 33.6 890.224 33.4C890.244 33.34 890.254 33.29 890.254 33.25C890.274 33.19 890.284 33.14 890.284 33.1C890.284 32.9 890.194 32.78 890.014 32.74C889.854 32.68 889.694 32.66 889.534 32.68H889.474C889.254 32.68 889.144 32.63 889.144 32.53C889.144 32.47 889.164 32.41 889.204 32.35C889.264 32.29 889.314 32.24 889.354 32.2C889.474 32.08 889.604 32.02 889.744 32.02C889.944 32.02 890.164 32.15 890.404 32.41C890.624 32.71 890.734 33 890.734 33.28C890.734 33.64 890.554 33.92 890.194 34.12C889.854 34.32 889.474 34.46 889.054 34.54C888.634 34.62 888.314 34.66 888.094 34.66C887.774 34.66 887.514 34.59 887.314 34.45C887.294 34.49 887.284 34.58 887.284 34.72C887.284 35.28 887.434 35.66 887.734 35.86C888.034 36.04 888.284 36.18 888.484 36.28C888.604 36.32 888.704 36.34 888.784 36.34C889.064 36.34 889.354 36.22 889.654 35.98C889.974 35.74 890.254 35.41 890.494 34.99C890.674 34.67 890.844 34.29 891.004 33.85C891.164 33.41 891.294 32.98 891.394 32.56C891.514 32.12 891.574 31.77 891.574 31.51ZM899.26 31.54C899.26 32 899.22 32.34 899.14 32.56C899.08 32.78 898.99 32.96 898.87 33.1C898.77 33.24 898.66 33.4 898.54 33.58C898.42 33.76 898.32 34.03 898.24 34.39C898.18 34.73 898.15 35.23 898.15 35.89C898.15 36.15 898.25 36.36 898.45 36.52C898.65 36.68 898.88 36.76 899.14 36.76C899.26 36.76 899.32 36.8 899.32 36.88C899.32 36.98 899.24 37.1 899.08 37.24C898.94 37.4 898.81 37.48 898.69 37.48C898.25 37.48 897.93 37.31 897.73 36.97C897.53 36.61 897.43 36.23 897.43 35.83C897.43 35.17 897.45 34.65 897.49 34.27C897.53 33.87 897.57 33.5 897.61 33.16C897.65 32.8 897.66 32.36 897.64 31.84C897.62 31.48 897.57 31.2 897.49 31C897.41 30.78 897.2 30.67 896.86 30.67C896.68 30.67 896.55 30.7 896.47 30.76C896.41 30.82 896.33 30.92 896.23 31.06C896.01 31.38 895.82 31.83 895.66 32.41C895.52 32.97 895.4 33.57 895.3 34.21C895.22 34.83 895.14 35.39 895.06 35.89C895 36.37 894.94 36.69 894.88 36.85C894.82 36.99 894.74 37.09 894.64 37.15C894.56 37.21 894.47 37.24 894.37 37.24C894.29 37.24 894.21 37.22 894.13 37.18C894.07 37.16 894.02 37.14 893.98 37.12C893.88 37.06 893.83 36.96 893.83 36.82C893.83 36.68 893.86 36.52 893.92 36.34C894 36.14 894.06 35.96 894.1 35.8C894.14 35.64 894.2 35.36 894.28 34.96C894.38 34.54 894.48 34.11 894.58 33.67C894.68 33.21 894.76 32.82 894.82 32.5C894.9 32.16 894.94 31.99 894.94 31.99C894.84 31.99 894.74 32 894.64 32.02C894.54 32.02 894.44 32.02 894.34 32.02C894.04 32.02 893.89 31.9 893.89 31.66C893.89 31.5 893.95 31.26 894.07 30.94C894.19 30.62 894.41 30.2 894.73 29.68C894.83 29.52 895.03 29.32 895.33 29.08C895.63 28.84 895.88 28.74 896.08 28.78C896.16 28.74 896.23 28.72 896.29 28.72C896.35 28.72 896.4 28.72 896.44 28.72C896.66 28.72 896.78 28.8 896.8 28.96C896.84 29.1 896.85 29.25 896.83 29.41C896.81 29.55 896.82 29.61 896.86 29.59C897.14 29.47 897.42 29.41 897.7 29.41C898.12 29.41 898.48 29.58 898.78 29.92C899.1 30.24 899.26 30.78 899.26 31.54ZM911.64 18.76C911.32 19.48 911.07 20.08 910.89 20.56C910.71 21.04 910.55 21.48 910.41 21.88C910.29 22.26 910.13 22.67 909.93 23.11C909.75 23.55 909.48 24.08 909.12 24.7C908.78 25.3 908.31 26.07 907.71 27.01C907.51 27.33 907.33 27.67 907.17 28.03C907.03 28.37 906.86 28.69 906.66 28.99C906.88 28.83 907.11 28.6 907.35 28.3C907.61 27.98 907.93 27.68 908.31 27.4C908.41 27.32 908.56 27.19 908.76 27.01C908.96 26.81 909.17 26.63 909.39 26.47C909.63 26.29 909.83 26.2 909.99 26.2C910.33 26.2 910.61 26.38 910.83 26.74C911.07 27.1 911.19 27.45 911.19 27.79C911.19 28.15 911.07 28.54 910.83 28.96C910.61 29.36 910.31 29.74 909.93 30.1C909.57 30.46 909.18 30.76 908.76 31C908.36 31.22 907.99 31.34 907.65 31.36L907.05 31.39C907.03 31.53 907 31.79 906.96 32.17C906.94 32.55 906.92 32.96 906.9 33.4C906.9 33.82 906.89 34.19 906.87 34.51C906.87 34.81 906.87 34.96 906.87 34.96C906.95 35.36 907.14 35.66 907.44 35.86C907.76 36.06 908.11 36.16 908.49 36.16C908.73 36.16 908.97 36.12 909.21 36.04C909.45 35.96 909.67 35.83 909.87 35.65C910.01 35.51 910.14 35.44 910.26 35.44C910.42 35.44 910.5 35.54 910.5 35.74C910.5 36 910.38 36.22 910.14 36.4C909.52 36.84 908.94 37.06 908.4 37.06C907.8 37.06 907.29 36.85 906.87 36.43C906.47 36.01 906.2 35.55 906.06 35.05C906.06 35.05 906.01 34.9 905.91 34.6C905.81 34.3 905.71 33.96 905.61 33.58C905.51 33.18 905.46 32.84 905.46 32.56C905.46 32.32 905.47 32.1 905.49 31.9C905.51 31.68 905.53 31.47 905.55 31.27C905.35 31.61 905.11 31.96 904.83 32.32C904.55 32.66 904.35 33.02 904.23 33.4C904.09 33.92 903.84 34.47 903.48 35.05C903.12 35.63 902.82 36.15 902.58 36.61C902.46 36.81 902.26 36.91 901.98 36.91C901.84 36.91 901.71 36.87 901.59 36.79C901.47 36.71 901.42 36.6 901.44 36.46C901.56 35.7 901.72 35 901.92 34.36C902.14 33.7 902.39 33 902.67 32.26C902.85 31.78 902.99 31.43 903.09 31.21C903.19 30.97 903.28 30.71 903.36 30.43C903.44 30.15 903.54 29.72 903.66 29.14C903.88 28.18 904.06 27.39 904.2 26.77C904.36 26.13 904.53 25.56 904.71 25.06C904.89 24.54 905.11 23.99 905.37 23.41C905.65 22.83 906.03 22.09 906.51 21.19C906.59 21.03 906.77 20.69 907.05 20.17C907.35 19.63 907.7 19.05 908.1 18.43C908.52 17.79 908.97 17.22 909.45 16.72C909.93 16.22 910.39 15.91 910.83 15.79C911.21 15.79 911.51 15.89 911.73 16.09C911.97 16.27 912.09 16.58 912.09 17.02C912.09 17.24 912.05 17.5 911.97 17.8C911.91 18.08 911.8 18.4 911.64 18.76ZM910.95 16.6C910.57 16.68 910.2 16.96 909.84 17.44C909.5 17.92 909.19 18.46 908.91 19.06C908.65 19.66 908.43 20.21 908.25 20.71C908.07 21.21 907.94 21.53 907.86 21.67C907.56 22.23 907.35 22.63 907.23 22.87C907.13 23.09 907.06 23.27 907.02 23.41C906.98 23.55 906.92 23.76 906.84 24.04C906.78 24.3 906.65 24.74 906.45 25.36C906.29 25.84 906.14 26.25 906 26.59C905.88 26.91 905.76 27.23 905.64 27.55C905.54 27.85 905.44 28.22 905.34 28.66C905.26 29.1 905.22 29.39 905.22 29.53C905.22 29.67 905.17 29.88 905.07 30.16C905.37 29.8 905.6 29.52 905.76 29.32C905.92 29.1 906.04 28.9 906.12 28.72C906.22 28.54 906.33 28.32 906.45 28.06C906.57 27.8 906.73 27.45 906.93 27.01C907.39 26.05 907.78 25.23 908.1 24.55C908.44 23.85 908.74 23.21 909 22.63C909.28 22.05 909.57 21.44 909.87 20.8C910.17 20.14 910.52 19.36 910.92 18.46C911.06 18.12 911.17 17.83 911.25 17.59C911.33 17.35 911.37 17.16 911.37 17.02C911.37 16.78 911.23 16.64 910.95 16.6ZM910.14 27.88C910.2 27.74 910.16 27.67 910.02 27.67C909.88 27.67 909.64 27.77 909.3 27.97C908.96 28.15 908.74 28.28 908.64 28.36C908.08 28.74 907.68 29.04 907.44 29.26C907.22 29.46 906.94 29.73 906.6 30.07C906.86 30.17 907.12 30.22 907.38 30.22C907.72 30.22 908.08 30.08 908.46 29.8C908.86 29.52 909.22 29.2 909.54 28.84C909.86 28.46 910.06 28.14 910.14 27.88ZM918.067 33.34C917.807 33.78 917.477 34.26 917.077 34.78C916.677 35.28 916.257 35.71 915.817 36.07C915.397 36.43 914.997 36.61 914.617 36.61C913.997 36.61 913.507 36.58 913.147 36.52C912.807 36.44 912.527 36.33 912.307 36.19C911.927 35.93 911.617 35.59 911.377 35.17C911.137 34.75 910.997 34.32 910.957 33.88C910.937 33.76 910.927 33.64 910.927 33.52C910.927 33.4 910.927 33.29 910.927 33.19C910.927 32.01 911.157 30.97 911.617 30.07C912.077 29.17 912.727 28.63 913.567 28.45C913.827 28.41 914.027 28.52 914.167 28.78C914.307 29.02 914.377 29.35 914.377 29.77C914.377 30.41 914.207 31.1 913.867 31.84C913.727 32.14 913.577 32.43 913.417 32.71C913.277 32.97 913.157 33.18 913.057 33.34C912.797 33.72 912.597 33.98 912.457 34.12C912.337 34.24 912.277 34.36 912.277 34.48C912.277 34.8 912.477 35.11 912.877 35.41C913.277 35.71 913.897 35.86 914.737 35.86C915.057 35.86 915.387 35.72 915.727 35.44C916.067 35.16 916.397 34.81 916.717 34.39C917.057 33.97 917.357 33.55 917.617 33.13C917.737 32.93 917.847 32.83 917.947 32.83C918.067 32.83 918.127 32.92 918.127 33.1C918.127 33.18 918.107 33.26 918.067 33.34ZM913.567 29.56C913.487 29.44 913.317 29.47 913.057 29.65C912.817 29.81 912.597 30.19 912.397 30.79C912.257 31.23 912.187 31.74 912.187 32.32C912.187 32.48 912.187 32.64 912.187 32.8C912.207 32.96 912.227 33.12 912.247 33.28C912.587 32.7 912.827 32.27 912.967 31.99C913.127 31.69 913.247 31.38 913.327 31.06C913.367 30.9 913.427 30.7 913.507 30.46C913.607 30.22 913.657 30.01 913.657 29.83C913.657 29.71 913.627 29.62 913.567 29.56ZM924.206 28.12C924.326 28.3 924.386 28.5 924.386 28.72C924.386 29.16 924.236 29.72 923.936 30.4C923.656 31.06 923.366 31.79 923.066 32.59C922.766 33.39 922.606 34.21 922.586 35.05C922.566 36.13 922.546 37.24 922.526 38.38C922.526 39.52 922.396 40.63 922.136 41.71C921.896 42.81 921.386 43.81 920.606 44.71C919.966 45.45 919.286 45.95 918.566 46.21C917.866 46.49 917.126 46.63 916.346 46.63C916.206 46.63 916.056 46.62 915.896 46.6C915.736 46.6 915.576 46.59 915.416 46.57C915.036 46.53 914.626 46.35 914.186 46.03C913.746 45.71 913.366 45.25 913.046 44.65C912.726 44.05 912.566 43.32 912.566 42.46C912.566 42.16 912.596 41.83 912.656 41.47C912.756 40.87 912.906 40.26 913.106 39.64C913.306 39.04 913.596 38.54 913.976 38.14C914.356 37.74 914.866 37.54 915.506 37.54C916.026 37.54 916.516 37.73 916.976 38.11C917.436 38.51 917.816 38.96 918.116 39.46C918.436 39.96 918.646 40.4 918.746 40.78C918.806 41.02 918.856 41.27 918.896 41.53C918.956 41.81 918.986 42.08 918.986 42.34C918.986 42.8 918.896 43.12 918.716 43.3C918.516 43.52 918.266 43.63 917.966 43.63C917.746 43.63 917.486 43.57 917.186 43.45C916.986 43.41 916.746 43.27 916.466 43.03C916.206 42.81 916.076 42.52 916.076 42.16C916.076 41.92 916.126 41.69 916.226 41.47C916.346 41.25 916.446 41.1 916.526 41.02C916.686 40.9 916.796 40.84 916.856 40.84C916.956 40.84 917.026 40.97 917.066 41.23V41.26C917.066 41.34 917.026 41.42 916.946 41.5C916.866 41.58 916.836 41.72 916.856 41.92C916.896 42.2 917.006 42.4 917.186 42.52C917.366 42.66 917.496 42.73 917.576 42.73C917.836 42.73 917.966 42.47 917.966 41.95C917.966 41.53 917.846 41.02 917.606 40.42C917.406 39.92 917.126 39.49 916.766 39.13C916.406 38.77 915.986 38.55 915.506 38.47C915.266 38.43 915.006 38.49 914.726 38.65C914.426 38.81 914.166 39.12 913.946 39.58C913.806 39.84 913.716 40.13 913.676 40.45C913.616 40.77 913.586 41.1 913.586 41.44C913.586 41.82 913.616 42.18 913.676 42.52C913.716 43.62 914.006 44.42 914.546 44.92C915.066 45.44 915.756 45.7 916.616 45.7C916.736 45.7 916.856 45.69 916.976 45.67C917.116 45.67 917.256 45.66 917.396 45.64C917.996 45.56 918.576 45.26 919.136 44.74C919.696 44.22 920.166 43.62 920.546 42.94C920.866 42.36 921.066 41.88 921.146 41.5C921.246 41.12 921.296 40.66 921.296 40.12C921.296 39.78 921.286 39.4 921.266 38.98C921.266 38.56 921.266 38.04 921.266 37.42C921.266 37.02 921.266 36.57 921.266 36.07C921.286 35.57 921.306 35.01 921.326 34.39C920.266 34.95 919.396 35.23 918.716 35.23C918.176 35.23 917.676 35.06 917.216 34.72C917.056 34.6 916.936 34.45 916.856 34.27C916.796 34.07 916.766 33.86 916.766 33.64C916.766 33.16 916.886 32.63 917.126 32.05C917.366 31.45 917.646 30.9 917.966 30.4C918.286 29.88 918.566 29.5 918.806 29.26C918.946 29.02 919.106 28.9 919.286 28.9C919.446 28.9 919.576 29 919.676 29.2C919.776 29.38 919.776 29.51 919.676 29.59C919.416 29.81 919.196 30.08 919.016 30.4C918.836 30.72 918.666 31.05 918.506 31.39C918.366 31.73 918.296 32.17 918.296 32.71C918.296 32.91 918.306 33.11 918.326 33.31C918.366 33.51 918.426 33.66 918.506 33.76C918.606 33.88 918.786 33.94 919.046 33.94C919.286 33.94 919.556 33.89 919.856 33.79C920.156 33.67 920.406 33.52 920.606 33.34C921.086 32.9 921.426 32.44 921.626 31.96C921.846 31.46 922.016 30.98 922.136 30.52C922.196 30.28 922.266 30 922.346 29.68C922.426 29.34 922.466 29 922.466 28.66C922.466 28.54 922.596 28.38 922.856 28.18C923.116 27.96 923.386 27.85 923.666 27.85C923.886 27.85 924.066 27.94 924.206 28.12Z" fill="#DBC743"/>
<rect id="Escape" x="16" y="14" width="36" height="34" fill="#DBC743"/>
<rect id="F1" x="93" y="14" width="36" height="34" fill="#D6D4D5"/>
<rect id="F2" x="140" y="14" width="36" height="34" fill="#D6D4D5"/>
<rect id="F3" x="187" y="14" width="36" height="34" fill="#D6D4D5"/>
<rect id="F4" x="234" y="14" width="36" height="34" fill="#D6D4D5"/>
<rect id="F5" x="288" y="14" width="36" height="34" fill="#413F44"/>
<rect id="F6" x="335" y="14" width="36" height="34" fill="#413F44"/>
<rect id="F7" x="382" y="14" width="36" height="34" fill="#413F44"/>
<rect id="F8" x="429" y="14" width="36" height="34" fill="#413F44"/>
<rect id="F9" x="483" y="14" width="36" height="34" fill="#D6D4D5"/>
<rect id="F10" x="530" y="14" width="36" height="34" fill="#D6D4D5"/>
<rect id="PrintScreen" x="674" y="14" width="36" height="34" fill="#413F44"/>
<rect id="F11" x="577" y="14" width="36" height="34" fill="#D6D4D5"/>
<rect id="ScrollLock" x="721" y="14" width="36" height="34" fill="#413F44"/>
<rect id="F12" x="624" y="14" width="36" height="34" fill="#D6D4D5"/>
<rect id="Pause" x="768" y="14" width="36" height="34" fill="#413F44"/>
<rect id="Backspace" x="577" y="70" width="86" height="34" fill="#413F44"/>
<rect id="q" x="83" y="112" width="36" height="34" fill="#D6D4D5"/>
<rect id="a" x="96" y="154" width="36" height="34" fill="#D6D4D5"/>
<rect id="z" x="121" y="195" width="36" height="34" fill="#D6D4D5"/>
<rect id="t" x="255" y="112" width="36" height="34" fill="#D6D4D5"/>
<rect id="g" x="268" y="154" width="36" height="34" fill="#D6D4D5"/>
<rect id="b" x="293" y="195" width="36" height="34" fill="#D6D4D5"/>
<rect id="o" x="427" y="112" width="36" height="34" fill="#D6D4D5"/>
<rect id="l" x="440" y="154" width="36" height="34" fill="#D6D4D5"/>
<rect id="_33" x="465" y="195" width="36" height="34" fill="#D6D4D5"/>
<rect id="e" x="169" y="112" width="36" height="34" fill="#D6D4D5"/>
<rect id="d" x="182" y="154" width="36" height="34" fill="#D6D4D5"/>
<rect id="c" x="207" y="195" width="36" height="34" fill="#D6D4D5"/>
<rect id="u" x="341" y="112" width="36" height="34" fill="#D6D4D5"/>
<rect id="j" x="354" y="154" width="36" height="34" fill="#D6D4D5"/>
<rect id="m" x="379" y="195" width="36" height="34" fill="#D6D4D5"/>
<rect id="_22-22" x="513" y="112" width="36" height="34" fill="#D6D4D5"/>
<rect id="_6-2" x="526" y="154" width="36" height="34" fill="#D6D4D5"/>
<rect id="w" x="126" y="112" width="36" height="34" fill="#D6D4D5"/>
<rect id="s" x="139" y="154" width="36" height="34" fill="#D6D4D5"/>
<rect id="x" x="164" y="195" width="36" height="34" fill="#D6D4D5"/>
<rect id="y" x="298" y="112" width="36" height="34" fill="#D6D4D5"/>
<rect id="h" x="311" y="154" width="36" height="34" fill="#D6D4D5"/>
<rect id="n" x="336" y="195" width="36" height="34" fill="#D6D4D5"/>
<rect id="p" x="470" y="112" width="36" height="34" fill="#D6D4D5"/>
<rect id="_3-2" x="483" y="154" width="36" height="34" fill="#D6D4D5"/>
<rect id="_5-2" x="508" y="195" width="36" height="34" fill="#D6D4D5"/>
<rect id="r" x="212" y="112" width="36" height="34" fill="#D6D4D5"/>
<rect id="f" x="225" y="154" width="36" height="34" fill="#D6D4D5"/>
<rect id="v" x="250" y="195" width="36" height="34" fill="#D6D4D5"/>
<rect id="i" x="384" y="112" width="36" height="34" fill="#D6D4D5"/>
<rect id="k" x="397" y="154" width="36" height="34" fill="#D6D4D5"/>
<rect id="_4-2" x="422" y="195" width="36" height="34" fill="#D6D4D5"/>
<rect id="_7-2" x="556" y="112" width="36" height="34" fill="#D6D4D5"/>
<rect id="_8-2" x="597" y="112" width="66" height="34" fill="#413F44"/>
<rect id="Tab" x="16" y="111" width="62" height="34" fill="#413F44"/>
<rect id="CapsLock" x="16" y="154" width="75" height="34" fill="#413F44"/>
<rect id="LShift" x="16" y="195" width="100" height="34" fill="#413F44"/>
<rect id="L_Ctrl" x="16" y="238" width="55" height="34" fill="#413F44"/>
<rect id="L_Win_Cmd" x="75" y="238" width="55" height="34" fill="#413F44"/>
<rect id="L_Alt" x="134" y="238" width="55" height="34" fill="#413F44"/>
<rect id="SpaceBar" x="193" y="238" width="242" height="34" fill="#D6D4D5"/>
<rect id="R_Alt" x="443" y="238" width="55" height="34" fill="#413F44"/>
<rect id="R_Win_Cmd" x="502" y="238" width="55" height="34" fill="#413F44"/>
<rect id="Fn" x="561" y="238" width="55" height="34" fill="#413F44"/>
<rect id="R_Ctrl" x="620" y="238" width="43" height="34" fill="#413F44"/>
<rect id="Enter" x="567" y="154" width="96" height="34" fill="#DBC743"/>
<rect id="RShift" x="548" y="196" width="115" height="34" fill="#413F44"/>
<rect id="Insert" x="674" y="70" width="36" height="34" fill="#413F44"/>
<rect id="Home" x="721" y="70" width="36" height="34" fill="#413F44"/>
<rect id="PageUp" x="768" y="70" width="36" height="34" fill="#413F44"/>
<rect id="Delete" x="674" y="112" width="36" height="34" fill="#413F44"/>
<rect id="End" x="721" y="112" width="36" height="34" fill="#413F44"/>
<rect id="PageDown" x="768" y="112" width="36" height="34" fill="#413F44"/>
<rect id="ArrowUp" x="721" y="196" width="36" height="34" fill="#413F44"/>
<rect id="ArrowDown" x="721" y="238" width="36" height="34" fill="#413F44"/>
<rect id="ArrowLeft" x="674" y="238" width="36" height="34" fill="#413F44"/>
<rect id="ArrowRight" x="768" y="238" width="36" height="34" fill="#413F44"/>
<rect id="NumLock" x="818" y="70" width="36" height="34" fill="#413F44"/>
<rect id="_9-2" x="865" y="70" width="36" height="34" fill="#413F44"/>
<rect id="_10" x="912" y="70" width="36" height="34" fill="#413F44"/>
<rect id="Num-" x="956" y="70" width="36" height="34" fill="#413F44"/>
<rect id="Num7" x="818" y="112" width="36" height="34" fill="#D6D4D5"/>
<rect id="Num8" x="865" y="112" width="36" height="34" fill="#D6D4D5"/>
<rect id="Num9" x="912" y="112" width="36" height="34" fill="#D6D4D5"/>
<rect id="Num4" x="818" y="154" width="36" height="34" fill="#D6D4D5"/>
<rect id="Num5" x="865" y="154" width="36" height="34" fill="#D6D4D5"/>
<rect id="Num6" x="912" y="154" width="36" height="34" fill="#D6D4D5"/>
<rect id="Num1" x="818" y="196" width="36" height="34" fill="#D6D4D5"/>
<rect id="Num2" x="865" y="196" width="36" height="34" fill="#D6D4D5"/>
<rect id="Num3" x="912" y="196" width="36" height="34" fill="#D6D4D5"/>
<rect id="_NumpadDecimal" x="912" y="238" width="36" height="34" fill="#D6D4D5"/>
<rect id="Num0" x="818" y="238" width="83" height="34" fill="#D6D4D5"/>
<rect id="Num_" x="956" y="112" width="36" height="76" fill="#413F44"/>
<rect id="NumEnter" x="956" y="196" width="36" height="76" fill="#413F44"/>
</g>
</svg>
