<svg id="KeyboardClickSwitch" xmlns="http://www.w3.org/2000/svg" xmlns:xlink="http://www.w3.org/1999/xlink" viewBox="0 0 873.54 424.17"><defs><style>.cls-1{fill:#2d2f35;}.cls-2{fill:url(#linear-gradient);}</style><linearGradient id="linear-gradient" y1="129.17" x2="873.54" y2="129.17" gradientUnits="userSpaceOnUse"><stop offset="0" stop-color="red" stop-opacity="0.5"/><stop offset="0.03" stop-color="#ff1300" stop-opacity="0.5"/><stop offset="0.08" stop-color="#ff4600" stop-opacity="0.5"/><stop offset="0.13" stop-color="#ff8700" stop-opacity="0.5"/><stop offset="0.18" stop-color="#ffa000" stop-opacity="0.5"/><stop offset="0.25" stop-color="#ffd300" stop-opacity="0.5"/><stop offset="0.38" stop-color="#deff0a" stop-opacity="0.5"/><stop offset="0.52" stop-color="#a1ff0a" stop-opacity="0.5"/><stop offset="0.63" stop-color="#0aff99" stop-opacity="0.5"/><stop offset="0.76" stop-color="#0aefff" stop-opacity="0.5"/><stop offset="0.88" stop-color="#580aff" stop-opacity="0.5"/><stop offset="1" stop-color="#be0aff" stop-opacity="0.5"/></linearGradient></defs><g id="KeyBoard_Plate" data-name="KeyBoard Plate"><path id="palmRest" class="cls-1" d="M.48,258.17h873a0,0,0,0,1,0,0v146a20,20,0,0,1-20,20h-833a20,20,0,0,1-20-20v-146A0,0,0,0,1,.48,258.17Z"/><g id="Plate"><rect width="873.54" height="258.33" rx="6.28"/></g><g id="RainbowPlate"><rect class="cls-2" width="873.54" height="258.33" rx="6.28"/></g><rect id="keybordKnobTwo" class="cls-1" x="755.48" y="10.17" width="110" height="29" rx="9.7"/><circle id="keyboardKnob" class="cls-1" cx="733.48" cy="24.17" r="14"/></g><g id="KeyBoard_Keys" data-name="KeyBoard Keys"><g id="Escape"><rect class="cls-1" x="9.02" y="8.6" width="37.14" height="37.14"/></g><g id="F1"><rect class="cls-1" x="84.43" y="8.08" width="37.14" height="37.14"/></g><g id="F2"><rect class="cls-1" x="122.6" y="8.08" width="37.14" height="37.14"/></g><g id="F3"><rect class="cls-1" x="160.77" y="8.08" width="37.14" height="37.14"/></g><g id="F4"><rect class="cls-1" x="198.95" y="8.08" width="37.14" height="37.14"/></g><g id="_" data-name=" "><rect class="cls-1" x="8.59" y="52.78" width="37.14" height="37.14"/></g><g id="L_Ctrl" data-name="L Ctrl"><rect class="cls-1" x="8.59" y="204.78" width="47.16" height="37.14"/></g><g id="L_Win_Cmd" data-name="L Win Cmd"><rect class="cls-1" x="56.56" y="204.78" width="47.16" height="37.14"/></g><g id="L_Alt" data-name="L Alt"><rect class="cls-1" x="104.53" y="204.78" width="47.16" height="37.14"/></g><g id="R_Alt" data-name="R Alt"><rect class="cls-1" x="389.12" y="204.78" width="47.16" height="37.14"/></g><g id="R_Win_Cmd" data-name="R Win Cmd"><rect class="cls-1" x="436.9" y="204.78" width="47.16" height="37.14"/></g><g id="Fn"><rect class="cls-1" x="484.68" y="204.78" width="47.16" height="37.14"/></g><g id="R_Ctrl" data-name="R Ctrl"><rect class="cls-1" x="532.46" y="204.78" width="47.16" height="37.14"/></g><g id="SpaceBar"><rect class="cls-1" x="152.75" y="204.78" width="234.99" height="37.14"/></g><g id="_1" data-name=" 1"><rect class="cls-1" x="46.6" y="52.78" width="37.14" height="37.14"/></g><g id="_2" data-name=" 2"><rect class="cls-1" x="84.6" y="52.78" width="37.14" height="37.14"/></g><g id="_3" data-name=" 3"><rect class="cls-1" x="122.6" y="52.78" width="37.14" height="37.14"/></g><g id="_4" data-name=" 4"><rect class="cls-1" x="160.6" y="52.78" width="37.14" height="37.14"/></g><g id="_5" data-name=" 5"><rect class="cls-1" x="198.6" y="52.78" width="37.14" height="37.14"/></g><g id="_6" data-name=" 6"><rect class="cls-1" x="236.6" y="52.78" width="37.14" height="37.14"/></g><g id="_7" data-name=" 7"><rect class="cls-1" x="274.6" y="52.78" width="37.14" height="37.14"/></g><g id="_8" data-name=" 8"><rect class="cls-1" x="312.61" y="52.78" width="37.14" height="37.14"/></g><g id="_9" data-name=" 9"><rect class="cls-1" x="350.61" y="52.78" width="37.14" height="37.14"/></g><g id="_0" data-name=" 0"><rect class="cls-1" x="388.61" y="52.78" width="37.14" height="37.14"/></g><g id="_-" data-name=" -"><rect class="cls-1" x="426.61" y="52.78" width="37.14" height="37.14"/></g><g id="_2-2" data-name=" "><rect class="cls-1" x="464.61" y="52.78" width="37.14" height="37.14"/></g><g id="q"><rect class="cls-1" x="66.03" y="90.78" width="37.14" height="37.14"/></g><g id="w"><rect class="cls-1" x="104.03" y="90.78" width="37.14" height="37.14"/></g><g id="e"><rect class="cls-1" x="142.03" y="90.78" width="37.14" height="37.14"/></g><g id="r"><rect class="cls-1" x="180.03" y="90.78" width="37.14" height="37.14"/></g><g id="t"><rect class="cls-1" x="218.03" y="90.78" width="37.14" height="37.14"/></g><g id="y"><rect class="cls-1" x="256.03" y="90.78" width="37.14" height="37.14"/></g><g id="u"><rect class="cls-1" x="294.03" y="90.78" width="37.14" height="37.14"/></g><g id="i"><rect class="cls-1" x="332.04" y="90.78" width="37.14" height="37.14"/></g><g id="o"><rect class="cls-1" x="370.04" y="90.78" width="37.14" height="37.14"/></g><g id="p"><rect class="cls-1" x="408.04" y="90.78" width="37.14" height="37.14"/></g><g id="_2-2" data-name=" 2-2"><rect class="cls-1" x="446.04" y="90.78" width="37.14" height="37.14"/></g><g id="a"><rect class="cls-1" x="76.75" y="128.72" width="37.14" height="37.14"/></g><g id="s"><rect class="cls-1" x="114.75" y="128.72" width="37.14" height="37.14"/></g><g id="d"><rect class="cls-1" x="152.75" y="128.72" width="37.14" height="37.14"/></g><g id="f"><rect class="cls-1" x="190.76" y="128.72" width="37.14" height="37.14"/></g><g id="g"><rect class="cls-1" x="228.76" y="128.72" width="37.14" height="37.14"/></g><g id="h"><rect class="cls-1" x="266.76" y="128.72" width="37.14" height="37.14"/></g><g id="j"><rect class="cls-1" x="304.76" y="128.72" width="37.14" height="37.14"/></g><g id="k"><rect class="cls-1" x="342.76" y="128.72" width="37.14" height="37.14"/></g><g id="l"><rect class="cls-1" x="380.76" y="128.72" width="37.14" height="37.14"/></g><g id="_3-2" data-name=" 3-2"><rect class="cls-1" x="418.76" y="128.72" width="37.14" height="37.14"/></g><g id="z"><rect class="cls-1" x="96.75" y="167.02" width="37.14" height="37.14"/></g><g id="x"><rect class="cls-1" x="134.75" y="167.02" width="37.14" height="37.14"/></g><g id="c"><rect class="cls-1" x="172.76" y="167.02" width="37.14" height="37.14"/></g><g id="v"><rect class="cls-1" x="210.76" y="167.02" width="37.14" height="37.14"/></g><g id="b"><rect class="cls-1" x="248.76" y="167.02" width="37.14" height="37.14"/></g><g id="n"><rect class="cls-1" x="286.76" y="167.02" width="37.14" height="37.14"/></g><g id="m"><rect class="cls-1" x="324.76" y="167.02" width="37.14" height="37.14"/></g><g id="_4-2" data-name=" 4-2"><rect class="cls-1" x="362.76" y="167.02" width="37.14" height="37.14"/></g><g id="_." data-name=" ."><rect class="cls-1" x="400.76" y="167.02" width="37.14" height="37.14"/></g><g id="_5-2" data-name=" 5-2"><rect class="cls-1" x="438.76" y="167.02" width="37.14" height="37.14"/></g><g id="_6-2" data-name=" 6-2"><rect class="cls-1" x="456.77" y="128.72" width="37.14" height="37.14"/></g><g id="_7-2" data-name=" 7-2"><rect class="cls-1" x="484.04" y="90.78" width="37.14" height="37.14"/></g><g id="_8-2" data-name=" 8-2"><rect class="cls-1" x="522.1" y="90.78" width="57.34" height="37.14"/></g><g id="Tab"><rect class="cls-1" x="8.59" y="90.78" width="56.74" height="37.14"/></g><g id="CapsLock"><rect class="cls-1" x="8.59" y="128.72" width="67.27" height="37.14"/></g><g id="LShift"><rect class="cls-1" x="8.59" y="167.02" width="87.35" height="37.14"/></g><g id="Backspace"><rect class="cls-1" x="503.09" y="52.78" width="76.35" height="37.14"/></g><g id="Enter"><rect class="cls-1" x="494.91" y="128.72" width="84.53" height="37.14"/></g><g id="Num0"><rect class="cls-1" x="713.38" y="204.59" width="76" height="37.14"/></g><g id="RShift"><rect class="cls-1" x="476.84" y="167.02" width="102.78" height="37.14"/></g><g id="F5"><rect class="cls-1" x="255.69" y="8.08" width="37.14" height="37.14"/></g><g id="F6"><rect class="cls-1" x="293.86" y="8.08" width="37.14" height="37.14"/></g><g id="F7"><rect class="cls-1" x="332.03" y="8.08" width="37.14" height="37.14"/></g><g id="F8"><rect class="cls-1" x="370.21" y="8.08" width="37.14" height="37.14"/></g><g id="F9"><rect class="cls-1" x="427.78" y="8.08" width="37.14" height="37.14"/></g><g id="F10"><rect class="cls-1" x="465.95" y="8.08" width="37.14" height="37.14"/></g><g id="F11"><rect class="cls-1" x="504.12" y="8.08" width="37.14" height="37.14"/></g><g id="F12"><rect class="cls-1" x="542.3" y="8.08" width="37.14" height="37.14"/></g><g id="PrintScreen"><rect class="cls-1" x="590.88" y="7.78" width="37.14" height="37.14"/></g><g id="ScrollLock"><rect class="cls-1" x="628.88" y="7.78" width="37.14" height="37.14"/></g><g id="Pause"><rect class="cls-1" x="666.88" y="7.78" width="37.14" height="37.14"/></g><g id="Insert"><rect class="cls-1" x="590.88" y="52.78" width="37.14" height="37.14"/></g><g id="Home"><rect class="cls-1" x="628.88" y="52.78" width="37.14" height="37.14"/></g><g id="PageUp"><rect class="cls-1" x="666.88" y="52.78" width="37.14" height="37.14"/></g><g id="Delete"><rect class="cls-1" x="590.88" y="90.78" width="37.14" height="37.14"/></g><g id="ArrowLeft"><rect class="cls-1" x="590.72" y="204.23" width="37.14" height="37.14"/></g><g id="ArrowDown"><rect class="cls-1" x="628.82" y="204.23" width="37.14" height="37.14"/></g><g id="ArrowRight"><rect class="cls-1" x="666.73" y="204.23" width="37.14" height="37.22"/></g><g id="ArrowUp"><rect class="cls-1" x="628.82" y="166.4" width="37.14" height="37.14"/></g><g id="End"><rect class="cls-1" x="628.88" y="90.78" width="37.14" height="37.14"/></g><g id="PageDown"><rect class="cls-1" x="666.88" y="90.78" width="37.14" height="37.14"/></g><g id="NumLock"><rect class="cls-1" x="714.38" y="52.49" width="37.14" height="37.14"/></g><g id="_9-2" data-name=" 9-2"><rect class="cls-1" x="752.38" y="52.49" width="37.14" height="37.14"/></g><g id="_10" data-name=" 10"><rect class="cls-1" x="790.38" y="52.49" width="37.14" height="37.14"/></g><g id="Num7"><rect class="cls-1" x="714.38" y="90.39" width="37.14" height="37.14"/></g><g id="Num8"><rect class="cls-1" x="752.38" y="90.39" width="37.14" height="37.14"/></g><g id="Num9"><rect class="cls-1" x="790.38" y="90.39" width="37.14" height="37.14"/></g><g id="Num4"><rect class="cls-1" x="714.38" y="128.39" width="37.14" height="37.14"/></g><g id="Num5"><rect class="cls-1" x="752.38" y="128.39" width="37.14" height="37.14"/></g><g id="Num6"><rect class="cls-1" x="790.38" y="128.39" width="37.14" height="37.14"/></g><g id="Num1"><rect class="cls-1" x="714.38" y="166.39" width="37.14" height="37.14"/></g><g id="Num2"><rect class="cls-1" x="752.38" y="166.39" width="37.14" height="37.14"/></g><g id="Num."><rect class="cls-1" x="790.38" y="204.59" width="37.14" height="37.14"/></g><g id="Num-"><rect class="cls-1" x="828.53" y="52.49" width="37.14" height="37.14"/></g><g id="Num_" data-name="Num "><rect class="cls-1" x="828.53" y="90.39" width="37.14" height="75.14"/></g><g id="NumEnter"><rect class="cls-1" x="828.53" y="166.39" width="37.14" height="75.34"/></g><g id="Num3"><rect class="cls-1" x="790.38" y="166.39" width="37.14" height="37.14"/></g></g></svg>