<svg id="tactile" xmlns="http://www.w3.org/2000/svg" viewBox="0 0 881.54 266.33"><defs><style>.cls-1{fill:#777;stroke:#777;stroke-miterlimit:10;stroke-width:8px;}.cls-2{fill:#2f2d2d;}.cls-3{fill:#f0a796;}.cls-4{fill:#f3f3f4;}.cls-5{fill:#f6f0eb;}.cls-6{fill:#d5cfc3;}.cls-7{fill:#d4cdc4;}.cls-8{fill:#f1efea;}.cls-9{fill:#faf4f0;}.cls-10{fill:#faf6f1;}.cls-11{fill:#f0f0ea;}.cls-12{fill:#d9d2c9;}.cls-13{fill:#f0a6a6;}.cls-14{fill:#f7f8f4;}.cls-15{fill:#d5d4d1;}.cls-16{fill:#d0c8c6;}.cls-17{fill:#f6f6f8;}.cls-18{fill:#d4cfcb;}.cls-19{fill:#c7c3b4;}</style></defs><g id="KeyBoard_Plate" data-name="KeyBoard Plate"><rect id="Plate" class="cls-1" x="4" y="4" width="873.54" height="258.33" rx="6.28"/><rect id="KeyBoard_LED5" data-name="KeyBoard LED5" class="cls-2" x="768.31" y="17.78" width="2.88" height="7.51" rx="1"/><rect id="KeyBoard_LED4" data-name="KeyBoard LED4" class="cls-2" x="855.2" y="17.78" width="2.88" height="7.51" rx="1"/><rect id="KeyBoard_LED3" data-name="KeyBoard LED3" class="cls-2" x="826.32" y="17.78" width="2.88" height="7.51" rx="1"/><rect id="KeyBoard_LED2" data-name="KeyBoard LED2" class="cls-2" x="796.93" y="17.78" width="2.88" height="7.51" rx="1"/><rect id="KeyBoard_LED1" data-name="KeyBoard LED1" class="cls-2" x="739.3" y="17.78" width="2.88" height="7.51" rx="1"/></g><g id="KeyBoard_Keys" data-name="KeyBoard Keys"><rect id="Escape" class="cls-3" x="13.02" y="12.6" width="37.14" height="37.14"/><rect id="F1" class="cls-4" x="88.43" y="12.08" width="37.14" height="37.14"/><rect id="F2" class="cls-4" x="126.6" y="12.08" width="37.14" height="37.14"/><rect id="F3" class="cls-4" x="164.77" y="12.08" width="37.14" height="37.14"/><rect id="F4" class="cls-4" x="202.95" y="12.08" width="37.14" height="37.14"/><rect id="_" data-name="`" class="cls-5" x="12.59" y="56.78" width="37.14" height="37.14"/><rect id="L_Ctrl" data-name="L Ctrl" class="cls-6" x="12.59" y="208.78" width="47.16" height="37.14"/><rect id="L_Win_Cmd" data-name="L Win Cmd" class="cls-6" x="60.56" y="208.78" width="47.16" height="37.14"/><rect id="L_Alt" data-name="L Alt" class="cls-6" x="108.53" y="208.78" width="47.16" height="37.14"/><rect id="R_Alt" data-name="R Alt" class="cls-7" x="393.12" y="208.78" width="47.16" height="37.14"/><rect id="R_Win_Cmd" data-name="R Win Cmd" class="cls-7" x="440.9" y="208.78" width="47.16" height="37.14"/><rect id="Fn" class="cls-7" x="488.68" y="208.78" width="47.16" height="37.14"/><rect id="R_Ctrl" data-name="R Ctrl" class="cls-7" x="536.46" y="208.78" width="47.16" height="37.14"/><rect id="SpaceBar" class="cls-8" x="156.75" y="208.78" width="234.99" height="37.14"/><rect id="_1" data-name=" 1" class="cls-9" x="50.6" y="56.78" width="37.14" height="37.14"/><rect id="_2" data-name=" 2" class="cls-9" x="88.6" y="56.78" width="37.14" height="37.14"/><rect id="_3" data-name=" 3" class="cls-9" x="126.6" y="56.78" width="37.14" height="37.14"/><rect id="_4" data-name=" 4" class="cls-9" x="164.6" y="56.78" width="37.14" height="37.14"/><rect id="_5" data-name=" 5" class="cls-9" x="202.6" y="56.78" width="37.14" height="37.14"/><rect id="_6" data-name=" 6" class="cls-9" x="240.6" y="56.78" width="37.14" height="37.14"/><rect id="_7" data-name=" 7" class="cls-9" x="278.6" y="56.78" width="37.14" height="37.14"/><rect id="_8" data-name=" 8" class="cls-9" x="316.61" y="56.78" width="37.14" height="37.14"/><rect id="_9" data-name=" 9" class="cls-9" x="354.61" y="56.78" width="37.14" height="37.14"/><rect id="_0" data-name=" 0" class="cls-9" x="392.61" y="56.78" width="37.14" height="37.14"/><rect id="_-" data-name=" -" class="cls-9" x="430.61" y="56.78" width="37.14" height="37.14"/><rect id="_2-2" data-name="=" class="cls-9" x="468.61" y="56.78" width="37.14" height="37.14"/><rect id="q" class="cls-10" x="70.03" y="94.78" width="37.14" height="37.14"/><rect id="w" class="cls-10" x="108.03" y="94.78" width="37.14" height="37.14"/><rect id="e" class="cls-10" x="146.03" y="94.78" width="37.14" height="37.14"/><rect id="r" class="cls-10" x="184.03" y="94.78" width="37.14" height="37.14"/><rect id="t" class="cls-10" x="222.03" y="94.78" width="37.14" height="37.14"/><rect id="y" class="cls-10" x="260.03" y="94.78" width="37.14" height="37.14"/><rect id="u" class="cls-10" x="298.03" y="94.78" width="37.14" height="37.14"/><rect id="i" class="cls-10" x="336.04" y="94.78" width="37.14" height="37.14"/><rect id="o" class="cls-10" x="374.04" y="94.78" width="37.14" height="37.14"/><rect id="p" class="cls-10" x="412.04" y="94.78" width="37.14" height="37.14"/><rect id="_2-2" data-name=" 2-2" class="cls-11" x="450.04" y="94.78" width="37.14" height="37.14"/><rect id="a" class="cls-10" x="80.75" y="132.72" width="37.14" height="37.14"/><rect id="s" class="cls-10" x="118.75" y="132.72" width="37.14" height="37.14"/><rect id="d" class="cls-10" x="156.75" y="132.72" width="37.14" height="37.14"/><rect id="f" class="cls-10" x="194.76" y="132.72" width="37.14" height="37.14"/><rect id="g" class="cls-10" x="232.76" y="132.72" width="37.14" height="37.14"/><rect id="h" class="cls-10" x="270.76" y="132.72" width="37.14" height="37.14"/><rect id="j" class="cls-10" x="308.76" y="132.72" width="37.14" height="37.14"/><rect id="k" class="cls-10" x="346.76" y="132.72" width="37.14" height="37.14"/><rect id="l" class="cls-10" x="384.76" y="132.72" width="37.14" height="37.14"/><rect id="_3-2" data-name=" 3-2" class="cls-10" x="422.76" y="132.72" width="37.14" height="37.14"/><rect id="z" class="cls-10" x="100.75" y="171.02" width="37.14" height="37.14"/><rect id="x" class="cls-10" x="138.75" y="171.02" width="37.14" height="37.14"/><rect id="c" class="cls-10" x="176.76" y="171.02" width="37.14" height="37.14"/><rect id="v" class="cls-10" x="214.76" y="171.02" width="37.14" height="37.14"/><rect id="b" class="cls-10" x="252.76" y="171.02" width="37.14" height="37.14"/><rect id="n" class="cls-10" x="290.76" y="171.02" width="37.14" height="37.14"/><rect id="m" class="cls-10" x="328.76" y="171.02" width="37.14" height="37.14"/><rect id="_4-2" data-name=" 4-2" class="cls-10" x="366.76" y="171.02" width="37.14" height="37.14"/><rect id="_." data-name=" ." class="cls-10" x="404.76" y="171.02" width="37.14" height="37.14"/><rect id="_5-2" data-name=" 5-2" class="cls-10" x="442.76" y="171.02" width="37.14" height="37.14"/><rect id="_6-2" data-name=" 6-2" class="cls-10" x="460.77" y="132.72" width="37.14" height="37.14"/><rect id="_7-2" data-name=" 7-2" class="cls-10" x="488.04" y="94.78" width="37.14" height="37.14"/><rect id="_8-2" data-name=" 8-2" class="cls-10" x="526.1" y="94.78" width="57.34" height="37.14"/><rect id="Tab" class="cls-6" x="12.59" y="94.78" width="56.74" height="37.14"/><rect id="CapsLock" class="cls-6" x="12.59" y="132.72" width="67.27" height="37.14"/><rect id="LShift" class="cls-6" x="12.59" y="171.02" width="87.35" height="37.14"/><rect id="Backspace" class="cls-12" x="507.09" y="56.78" width="76.35" height="37.14"/><rect id="Enter" class="cls-13" x="498.91" y="132.72" width="84.53" height="37.14"/><rect id="Num0" class="cls-14" x="717.38" y="208.59" width="76" height="37.14"/><rect id="RShift" class="cls-15" x="480.84" y="171.02" width="102.78" height="37.14"/><rect id="F5" class="cls-16" x="259.69" y="12.08" width="37.14" height="37.14"/><rect id="F6" class="cls-16" x="297.86" y="12.08" width="37.14" height="37.14"/><rect id="F7" class="cls-16" x="336.03" y="12.08" width="37.14" height="37.14"/><rect id="F8" class="cls-16" x="374.21" y="12.08" width="37.14" height="37.14"/><rect id="F9" class="cls-17" x="431.78" y="12.08" width="37.14" height="37.14"/><rect id="F10" class="cls-17" x="469.95" y="12.08" width="37.14" height="37.14"/><rect id="F11" class="cls-17" x="508.12" y="12.08" width="37.14" height="37.14"/><rect id="F12" class="cls-17" x="546.3" y="12.08" width="37.14" height="37.14"/><rect id="PrintScreen" class="cls-18" x="594.88" y="11.78" width="37.14" height="37.14"/><rect id="ScrollLock" class="cls-18" x="632.88" y="11.78" width="37.14" height="37.14"/><rect id="Pause" class="cls-18" x="670.88" y="11.78" width="37.14" height="37.14"/><rect id="Insert" class="cls-18" x="594.88" y="56.78" width="37.14" height="37.14"/><rect id="Home" class="cls-18" x="632.88" y="56.78" width="37.14" height="37.14"/><rect id="PageUp" class="cls-18" x="670.88" y="56.78" width="37.14" height="37.14"/><rect id="Delete" class="cls-18" x="594.88" y="94.78" width="37.14" height="37.14"/><rect id="ArrowLeft" class="cls-18" x="594.72" y="208.23" width="37.14" height="37.14"/><rect id="ArrowDown" class="cls-18" x="632.82" y="208.23" width="37.14" height="37.14"/><rect id="ArrowRight" class="cls-18" x="670.73" y="208.23" width="37.14" height="37.22"/><rect id="ArrowUp" class="cls-18" x="632.82" y="170.4" width="37.14" height="37.14"/><rect id="End" class="cls-18" x="632.88" y="94.78" width="37.14" height="37.14"/><rect id="PageDown" class="cls-18" x="670.88" y="94.78" width="37.14" height="37.14"/><rect id="NumLock" class="cls-19" x="718.38" y="56.49" width="37.14" height="37.14"/><rect id="_9-2" data-name="9-2" class="cls-19" x="756.38" y="56.49" width="37.14" height="37.14"/><rect id="_10" data-name="10" class="cls-19" x="794.38" y="56.49" width="37.14" height="37.14"/><rect id="Num7" class="cls-14" x="718.38" y="94.39" width="37.14" height="37.14"/><rect id="Num8" class="cls-14" x="756.38" y="94.39" width="37.14" height="37.14"/><rect id="Num9" class="cls-14" x="794.38" y="94.39" width="37.14" height="37.14"/><rect id="Num4" class="cls-14" x="718.38" y="132.39" width="37.14" height="37.14"/><rect id="Num5" class="cls-14" x="756.38" y="132.39" width="37.14" height="37.14"/><rect id="Num6" class="cls-14" x="794.38" y="132.39" width="37.14" height="37.14"/><rect id="Num1" class="cls-14" x="718.38" y="170.39" width="37.14" height="37.14"/><rect id="Num2" class="cls-14" x="756.38" y="170.39" width="37.14" height="37.14"/><rect id="Num." class="cls-14" x="794.38" y="208.59" width="37.14" height="37.14"/><rect id="Num-" class="cls-19" x="832.53" y="56.49" width="37.14" height="37.14"/><rect id="Num_" data-name="Num " class="cls-19" x="832.53" y="94.39" width="37.14" height="75.14"/><rect id="NumEnter" class="cls-19" x="832.53" y="170.39" width="37.14" height="75.34"/><rect id="Num3" class="cls-14" x="794.38" y="170.39" width="37.14" height="37.14"/></g></svg>