<svg xmlns="http://www.w3.org/2000/svg" viewBox="0 0 881.6 266.4"><defs><style>.cls-1{fill:#777;stroke:#777;stroke-miterlimit:10;stroke-width:8px;}.cls-2{fill:#2f2d2d;}.cls-3{fill:#4c4c4c;}.cls-4{fill:#d8781e;}</style></defs><g id="Layer_2" data-name="Layer 2"><g id="linear"><g id="tactile"><g id="KeyBoard_Plate" data-name="KeyBoard Plate"><path id="Plate" class="cls-1" d="M10.3,4h861a6.27,6.27,0,0,1,6.3,6.3V256.1a6.27,6.27,0,0,1-6.3,6.3H10.3A6.27,6.27,0,0,1,4,256.1V10.3A6.27,6.27,0,0,1,10.3,4Z"/><path id="KeyBoard_LED4" data-name="KeyBoard LED4" class="cls-2" d="M850.9,26.9h.9a.94.94,0,0,1,1,1v5.5a.94.94,0,0,1-1,1h-.9a.94.94,0,0,1-1-1V27.9A.94.94,0,0,1,850.9,26.9Z"/><path id="KeyBoard_LED3" data-name="KeyBoard LED3" class="cls-2" d="M812.27,26.9h.9a.94.94,0,0,1,1,1v5.5a.94.94,0,0,1-1,1h-.9a.94.94,0,0,1-1-1V27.9A.94.94,0,0,1,812.27,26.9Z"/><path id="KeyBoard_LED2" data-name="KeyBoard LED2" class="cls-2" d="M773.63,26.9h.9a.94.94,0,0,1,1,1v5.5a.94.94,0,0,1-1,1h-.9a.94.94,0,0,1-1-1V27.9A1,1,0,0,1,773.63,26.9Z"/><path id="KeyBoard_LED1" data-name="KeyBoard LED1" class="cls-2" d="M735,26.9h.9a.94.94,0,0,1,1,1v5.5a.94.94,0,0,1-1,1H735a.94.94,0,0,1-1-1V27.9A.94.94,0,0,1,735,26.9Z"/></g><g id="KeyBoard_Keys" data-name="KeyBoard Keys"><rect id="F1" class="cls-3" x="88.4" y="12.1" width="37.1" height="37.1"/><rect id="F2" class="cls-3" x="126.6" y="12.1" width="37.1" height="37.1"/><rect id="F3" class="cls-3" x="164.7" y="12.1" width="37.1" height="37.1"/><rect id="F4" class="cls-3" x="202.9" y="12.1" width="37.1" height="37.1"/><rect id="_" data-name="`" class="cls-3" x="12.6" y="56.8" width="37.1" height="37.1"/><rect id="L_Ctrl" data-name="L Ctrl" class="cls-3" x="12.6" y="208.8" width="47.2" height="37.1"/><rect id="L_Win_Cmd" data-name="L Win Cmd" class="cls-3" x="60.5" y="208.8" width="47.2" height="37.1"/><rect id="L_Alt" data-name="L Alt" class="cls-3" x="108.5" y="208.8" width="47.2" height="37.1"/><rect id="R_Alt" data-name="R Alt" class="cls-3" x="393.1" y="208.8" width="47.2" height="37.1"/><rect id="R_Win_Cmd" data-name="R Win Cmd" class="cls-3" x="440.9" y="208.8" width="47.2" height="37.1"/><rect id="Fn" class="cls-3" x="488.7" y="208.8" width="47.2" height="37.1"/><rect id="R_Ctrl" data-name="R Ctrl" class="cls-3" x="536.4" y="208.8" width="47.2" height="37.1"/><rect id="SpaceBar" class="cls-3" x="156.7" y="208.8" width="235" height="37.1"/><rect id="_1" data-name=" 1" class="cls-3" x="50.6" y="56.8" width="37.1" height="37.1"/><rect id="_2" data-name=" 2" class="cls-3" x="88.6" y="56.8" width="37.1" height="37.1"/><rect id="_3" data-name=" 3" class="cls-3" x="126.6" y="56.8" width="37.1" height="37.1"/><rect id="_4" data-name=" 4" class="cls-3" x="164.6" y="56.8" width="37.1" height="37.1"/><rect id="_5" data-name=" 5" class="cls-3" x="202.6" y="56.8" width="37.1" height="37.1"/><rect id="_6" data-name=" 6" class="cls-3" x="240.6" y="56.8" width="37.1" height="37.1"/><rect id="_7" data-name=" 7" class="cls-3" x="278.6" y="56.8" width="37.1" height="37.1"/><rect id="_8" data-name=" 8" class="cls-3" x="316.6" y="56.8" width="37.1" height="37.1"/><rect id="_9" data-name=" 9" class="cls-3" x="354.6" y="56.8" width="37.1" height="37.1"/><rect id="_0" data-name=" 0" class="cls-3" x="392.6" y="56.8" width="37.1" height="37.1"/><rect id="_-" data-name=" -" class="cls-3" x="430.6" y="56.8" width="37.1" height="37.1"/><rect id="_2-2" data-name="=" class="cls-3" x="468.6" y="56.8" width="37.1" height="37.1"/><rect id="q" class="cls-3" x="70" y="94.8" width="37.1" height="37.1"/><rect id="w" class="cls-3" x="108" y="94.8" width="37.1" height="37.1"/><rect id="e" class="cls-3" x="146" y="94.8" width="37.1" height="37.1"/><rect id="r" class="cls-3" x="184" y="94.8" width="37.1" height="37.1"/><rect id="t" class="cls-3" x="222" y="94.8" width="37.1" height="37.1"/><rect id="y" class="cls-3" x="260" y="94.8" width="37.1" height="37.1"/><rect id="u" class="cls-3" x="298" y="94.8" width="37.1" height="37.1"/><rect id="i" class="cls-3" x="336" y="94.8" width="37.1" height="37.1"/><rect id="o" class="cls-3" x="374" y="94.8" width="37.1" height="37.1"/><rect id="p" class="cls-3" x="412" y="94.8" width="37.1" height="37.1"/><rect id="_2-2" data-name=" 2-2" class="cls-3" x="450" y="94.8" width="37.1" height="37.1"/><rect id="a" class="cls-3" x="80.7" y="132.7" width="37.1" height="37.1"/><rect id="s" class="cls-3" x="118.7" y="132.7" width="37.1" height="37.1"/><rect id="d" class="cls-3" x="156.7" y="132.7" width="37.1" height="37.1"/><rect id="f" class="cls-3" x="194.7" y="132.7" width="37.1" height="37.1"/><rect id="g" class="cls-3" x="232.7" y="132.7" width="37.1" height="37.1"/><rect id="h" class="cls-3" x="270.7" y="132.7" width="37.1" height="37.1"/><rect id="j" class="cls-3" x="308.7" y="132.7" width="37.1" height="37.1"/><rect id="k" class="cls-3" x="346.7" y="132.7" width="37.1" height="37.1"/><rect id="l" class="cls-3" x="384.7" y="132.7" width="37.1" height="37.1"/><rect id="_3-2" data-name=" 3-2" class="cls-3" x="422.7" y="132.7" width="37.1" height="37.1"/><rect id="z" class="cls-3" x="100.7" y="171" width="37.1" height="37.1"/><rect id="x" class="cls-3" x="138.7" y="171" width="37.1" height="37.1"/><rect id="c" class="cls-3" x="176.7" y="171" width="37.1" height="37.1"/><rect id="v" class="cls-3" x="214.7" y="171" width="37.1" height="37.1"/><rect id="b" class="cls-3" x="252.7" y="171" width="37.1" height="37.1"/><rect id="n" class="cls-3" x="290.7" y="171" width="37.1" height="37.1"/><rect id="m" class="cls-3" x="328.7" y="171" width="37.1" height="37.1"/><rect id="_4-2" data-name=" 4-2" class="cls-3" x="366.7" y="171" width="37.1" height="37.1"/><rect id="_." data-name=" ." class="cls-3" x="404.7" y="171" width="37.1" height="37.1"/><rect id="_5-2" data-name=" 5-2" class="cls-3" x="442.7" y="171" width="37.1" height="37.1"/><rect id="_6-2" data-name=" 6-2" class="cls-3" x="460.7" y="132.7" width="37.1" height="37.1"/><rect id="_7-2" data-name=" 7-2" class="cls-3" x="488" y="94.8" width="37.1" height="37.1"/><rect id="_8-2" data-name=" 8-2" class="cls-3" x="526.1" y="94.8" width="57.3" height="37.1"/><rect id="Tab" class="cls-3" x="12.6" y="94.8" width="56.7" height="37.1"/><rect id="CapsLock" class="cls-3" x="12.6" y="132.7" width="67.3" height="37.1"/><rect id="LShift" class="cls-3" x="12.6" y="171" width="87.4" height="37.1"/><rect id="Backspace" class="cls-3" x="507.1" y="56.8" width="76.4" height="37.1"/><rect id="Enter" class="cls-3" x="498.9" y="132.7" width="84.5" height="37.1"/><rect id="Num0" class="cls-3" x="717.4" y="208.6" width="76" height="37.1"/><rect id="RShift" class="cls-3" x="480.8" y="171" width="102.8" height="37.1"/><rect id="F5" class="cls-3" x="259.7" y="12.1" width="37.1" height="37.1"/><rect id="F6" class="cls-3" x="297.8" y="12.1" width="37.1" height="37.1"/><rect id="F7" class="cls-3" x="336" y="12.1" width="37.1" height="37.1"/><rect id="F8" class="cls-3" x="374.2" y="12.1" width="37.1" height="37.1"/><rect id="F9" class="cls-3" x="431.8" y="12.1" width="37.1" height="37.1"/><rect id="F10" class="cls-3" x="469.9" y="12.1" width="37.1" height="37.1"/><rect id="F11" class="cls-3" x="508.1" y="12.1" width="37.1" height="37.1"/><rect id="F12" class="cls-3" x="546.3" y="12.1" width="37.1" height="37.1"/><rect id="PrintScreen" class="cls-3" x="594.9" y="11.8" width="37.1" height="37.1"/><rect id="ScrollLock" class="cls-3" x="632.9" y="11.8" width="37.1" height="37.1"/><rect id="Pause" class="cls-3" x="670.9" y="11.8" width="37.1" height="37.1"/><rect id="Insert" class="cls-3" x="594.9" y="56.8" width="37.1" height="37.1"/><rect id="Home" class="cls-3" x="632.9" y="56.8" width="37.1" height="37.1"/><rect id="PageUp" class="cls-3" x="670.9" y="56.8" width="37.1" height="37.1"/><rect id="Delete" class="cls-3" x="594.9" y="94.8" width="37.1" height="37.1"/><rect id="ArrowLeft" class="cls-3" x="594.7" y="208.2" width="37.1" height="37.1"/><rect id="ArrowDown" class="cls-3" x="632.8" y="208.2" width="37.1" height="37.1"/><rect id="ArrowRight" class="cls-3" x="670.7" y="208.2" width="37.1" height="37.2"/><rect id="ArrowUp" class="cls-3" x="632.8" y="170.4" width="37.1" height="37.1"/><rect id="End" class="cls-3" x="632.9" y="94.8" width="37.1" height="37.1"/><rect id="PageDown" class="cls-3" x="670.9" y="94.8" width="37.1" height="37.1"/><rect id="NumLock" class="cls-3" x="718.4" y="56.5" width="37.1" height="37.1"/><rect id="_9-2" data-name="9-2" class="cls-3" x="756.4" y="56.5" width="37.1" height="37.1"/><rect id="_10" data-name="10" class="cls-3" x="794.4" y="56.5" width="37.1" height="37.1"/><rect id="Num7" class="cls-3" x="718.4" y="94.4" width="37.1" height="37.1"/><rect id="Num8" class="cls-3" x="756.4" y="94.4" width="37.1" height="37.1"/><rect id="Num9" class="cls-3" x="794.4" y="94.4" width="37.1" height="37.1"/><rect id="Num4" class="cls-3" x="718.4" y="132.4" width="37.1" height="37.1"/><rect id="Num5" class="cls-3" x="756.4" y="132.4" width="37.1" height="37.1"/><rect id="Num6" class="cls-3" x="794.4" y="132.4" width="37.1" height="37.1"/><rect id="Num1" class="cls-3" x="718.4" y="170.4" width="37.1" height="37.1"/><rect id="Num2" class="cls-3" x="756.4" y="170.4" width="37.1" height="37.1"/><rect id="Num." class="cls-3" x="794.4" y="208.6" width="37.1" height="37.1"/><rect id="Num-" class="cls-3" x="832.5" y="56.5" width="37.1" height="37.1"/><rect id="Num_" data-name="Num " class="cls-3" x="832.5" y="94.4" width="37.1" height="75.1"/><rect id="NumEnter" class="cls-3" x="832.5" y="170.4" width="37.1" height="75.3"/><rect id="Num3" class="cls-3" x="794.4" y="170.4" width="37.1" height="37.1"/><rect id="Escape" class="cls-4" x="13" y="12.6" width="37.1" height="37.1"/></g></g></g></g></svg>